<svg width="53" height="55" viewBox="0 0 53 55" fill="none" xmlns="http://www.w3.org/2000/svg">
<path d="M17.4805 9.06134C28.3439 5.4148 41.8081 12.4889 44.7236 25.491C45.7716 30.1654 45.6693 34.5328 44.3408 38.5027C43.0128 42.4712 40.4491 46.075 36.5225 49.2059C25.9108 57.6673 10.2323 54.5413 3.62305 42.8719V42.8709L3.24805 42.1883C1.43682 38.7598 0.519459 35.0399 0.5 30.0115C0.77733 23.2257 3.8013 16.4937 10.9961 11.8436C12.8987 10.6151 15.1951 9.82717 17.4795 9.06134H17.4805ZM34.9678 13.3192C27.8426 8.00625 17.0199 7.82577 9.95508 14.4168C5.12103 18.9247 2.80092 24.4062 2.70703 29.743V29.7527C2.71638 35.6997 4.17812 40.1971 7.25879 44.2195C13.7769 52.7395 25.531 54.6508 34.2949 48.6111C46.3065 40.3282 46.6344 22.0153 34.9678 13.3192Z" fill="#0000FF" stroke="#0000FF"/>
<path d="M23.0724 43.0767C18.121 43.2052 13.133 39.5978 12.0915 35.1336C12.0276 34.868 12.0002 34.5766 12.0002 34.3367C11.991 33.6598 12.3656 33.5056 12.6579 33.4199C12.9503 33.3428 13.4984 33.5998 13.7176 33.8655C14.1379 34.371 14.4028 34.9794 14.7225 35.5535C16.0563 37.9013 17.92 39.7092 20.688 40.489C25.8039 41.9285 31.1848 38.4668 31.9887 33.2742C32.0161 33.0686 32.144 32.7258 32.1988 32.5716C32.4911 31.8347 32.8383 31.8004 33.2677 31.7662C33.9711 31.7147 34.2086 32.3402 34.1264 32.9315C33.3042 38.7067 28.9009 42.9824 23.0724 43.0767Z" fill="#0000FF"/>
<path d="M30.2759 16.0327C30.2857 15.6747 30.3776 15.1557 30.981 15.0583C31.5663 14.9637 32.0339 15.2446 32.2178 15.5452C33.5514 17.7549 34.3449 20.1562 34.4241 22.7076C34.4385 23.0965 34.0825 23.745 33.6232 23.8192C32.9658 23.9254 32.3642 23.4662 32.1922 23.0768C31.4726 21.498 30.2216 17.945 30.2759 16.0327Z" fill="#0000FF"/>
<path d="M12.722 24.0753C12.459 22.614 12.4411 21.9477 12.4645 20.9964C12.4712 20.6216 12.5813 20.1518 13.1437 19.8784C13.8461 19.765 14.1506 20.2721 14.2698 20.5745C15.209 22.9609 15.7361 25.0662 16.1952 27.6693C16.3062 28.2859 16.2131 28.9528 15.3937 29.1373C14.5022 29.3334 14.2111 28.6938 13.9424 28.0766C13.3162 26.6566 12.9865 25.5451 12.722 24.0753Z" fill="#0000FF"/>
<path d="M46.5 13.2895V12.65L45.75 6.89475L45 1.13949V0.500015" stroke="#0000FF" stroke-linecap="round"/>
<path d="M39 7.60529H39.675L45.75 6.89476L51.825 6.18423H52.5" stroke="#0000FF" stroke-linecap="round"/>
</svg>
