<svg width="92" height="85" viewBox="0 0 92 85" fill="none" xmlns="http://www.w3.org/2000/svg">
<path d="M49.635 78.5665C51.2727 79.0429 52.9951 78.5251 54.553 77.4483L54.552 77.4473C58.1634 74.976 59.5343 71.4049 60.2161 67.8048L60.217 67.8028C61.0333 63.466 60.2063 59.4213 58.7209 55.7452C61.1026 56.0227 63.5831 56.3221 66.0334 56.3878L66.6526 56.3917C69.7322 56.344 72.5626 55.2523 74.969 53.42C76.9267 51.9302 78.3027 50.2545 78.6536 48.2393C78.9483 46.5459 78.4709 44.891 77.5042 43.2667C79.2319 41.0433 80.1016 38.6656 79.845 36.2178C79.6004 33.8856 78.3578 31.7483 76.3538 29.8311C76.8259 29.2049 77.2217 28.5105 77.4504 27.7511C77.8621 26.3834 77.7035 24.9184 76.7561 23.5343C76.1009 22.5694 75.2897 21.7405 74.4709 20.9698C73.7543 20.2952 73.0981 19.7188 72.3938 19.0509C72.28 13.4338 66.9034 9.19087 60.2083 9.06941L60.2092 9.06844C50.525 8.88896 40.8844 9.34359 31.2649 10.6417L29.342 10.9132C23.1963 11.8125 16.9849 12.2747 10.6868 12.8634H10.6858C9.96092 12.9315 9.29644 13.0002 8.74829 13.1173C8.2051 13.2333 7.57652 13.4347 7.06079 13.9034C6.50685 14.4069 6.27158 15.0413 6.17017 15.6378C6.07513 16.1968 6.07798 16.8418 6.10181 17.5108C6.35489 25.4717 6.65575 33.4463 6.97192 41.4034V41.4063C7.02269 42.6195 7.24771 43.8999 8.21021 44.8077C9.14934 45.6934 10.4586 45.9048 11.7747 45.9434L12.3518 45.9669C18.2821 46.2597 23.2906 48.1712 27.5686 52.0762L28.0413 52.4942C29.1585 53.4515 30.3665 54.2867 31.5461 55.0665C32.9243 55.9775 34.2285 56.7909 35.468 57.7042L35.47 57.7071C40.1609 61.1465 42.8075 65.8664 44.7483 71.2247L44.7493 71.2276C44.989 71.8853 45.2519 72.5352 45.5032 73.1563C45.7578 73.7858 46.0012 74.3872 46.22 74.9874V74.9884C46.8515 76.7151 47.9781 78.0843 49.635 78.5665Z" fill="#FFFF00" stroke="black" stroke-width="3"/>
</svg>
