<svg width="92" height="85" viewBox="0 0 92 85" fill="none" xmlns="http://www.w3.org/2000/svg">
<path d="M53.0469 7.67676C54.6846 7.20035 56.407 7.7181 57.9648 8.79492L57.9639 8.7959C61.5753 11.2673 62.9461 14.8383 63.6279 18.4385L63.6289 18.4404C64.4452 22.7772 63.6182 26.8219 62.1328 30.498C64.5145 30.2206 66.995 29.9211 69.4453 29.8555L70.0645 29.8516C73.1441 29.8993 75.9745 30.9909 78.3809 32.8232C80.3385 34.3131 81.7146 35.9888 82.0654 38.0039C82.3602 39.6974 81.8828 41.3522 80.916 42.9766C82.6438 45.1999 83.5135 47.5776 83.2568 50.0254C83.0122 52.3576 81.7697 54.495 79.7656 56.4121C80.2377 57.0383 80.6336 57.7327 80.8623 58.4922C81.274 59.8598 81.1154 61.3249 80.168 62.709C79.5127 63.6738 78.7015 64.5028 77.8828 65.2734C77.1661 65.9481 76.5099 66.5244 75.8057 67.1924C75.6918 72.8095 70.3153 77.0524 63.6201 77.1738L63.6211 77.1748C53.9369 77.3543 44.2963 76.8997 34.6768 75.6016L32.7539 75.3301C26.6081 74.4307 20.3968 73.9685 14.0986 73.3799H14.0977C13.3728 73.3117 12.7083 73.2431 12.1602 73.126C11.617 73.01 10.9884 72.8085 10.4727 72.3398C9.91873 71.8364 9.68345 71.2019 9.58203 70.6055C9.487 70.0464 9.48984 69.4014 9.51367 68.7324C9.76676 60.7715 10.0676 52.7969 10.3838 44.8398V44.8369C10.4346 43.6238 10.6596 42.3433 11.6221 41.4355C12.5612 40.5499 13.8705 40.3384 15.1865 40.2998L15.7637 40.2764C21.694 39.9835 26.7024 38.0721 30.9805 34.167L31.4531 33.749C32.5704 32.7918 33.7784 31.9566 34.958 31.1768C36.3361 30.2657 37.6403 29.4523 38.8799 28.5391L38.8818 28.5361C43.5728 25.0967 46.2194 20.3769 48.1602 15.0186L48.1611 15.0156C48.4008 14.358 48.6638 13.708 48.915 13.0869C49.1697 12.4574 49.4131 11.8561 49.6318 11.2559V11.2549C50.2634 9.52812 51.3899 8.15891 53.0469 7.67676Z" fill="#FFFF00" stroke="black" stroke-width="3"/>
</svg>
