<svg width="92" height="85" viewBox="0 0 92 85" fill="none" xmlns="http://www.w3.org/2000/svg">
<path d="M82.3799 8.5V75.71H9.5V8.5H82.3799Z" fill="#FFFF00" stroke="black" stroke-width="3"/>
<ellipse cx="44.991" cy="56.147" rx="4.7425" ry="3.5105" fill="#FF383C"/>
<ellipse cx="3.77282" cy="11.1253" rx="3.77282" ry="11.1253" transform="matrix(-0.498541 -0.866866 0.897148 -0.441729 47.8044 61.9853)" fill="#FF383C"/>
<ellipse cx="4.10197" cy="10.6306" rx="4.10197" ry="10.6306" transform="matrix(0.650429 -0.759567 0.806486 0.591253 23.6257 49.8066)" fill="#FF383C"/>
<path d="M47.4254 61.3835C41.6712 61.1933 35.996 60.5936 30.8583 57.8876C27.2856 56.0007 24.6614 53.3678 23.6497 49.5501C22.9858 47.0197 23.8078 44.7963 25.8629 43.7578C28.0919 42.6315 30.969 43.0411 32.6288 45.162C37.6875 51.6126 47.9629 53.5287 56.1833 48.9651C57.6851 48.1313 59.2975 47.4438 60.9258 46.8441C62.554 46.2444 64.2297 46.0543 65.6683 47.3853C67.1384 48.7457 67.2175 50.4131 66.7116 52.0953C66.016 54.421 64.4985 56.2493 62.3011 57.5658C57.7641 60.2572 52.7687 61.3981 47.4254 61.3835ZM47.6784 57.9607C52.4841 58.0339 55.8671 57.5804 59.3607 55.7228C61.2103 54.7428 62.143 54.1723 63.5183 52.6511C63.6606 52.4902 64.3562 51.6418 64.451 51.1152C64.7198 49.7257 63.0125 48.5263 61.6213 49.1113C61.6213 49.1113 61.6055 49.1113 61.6055 49.126C59.0604 50.2522 56.6891 51.7296 54.0966 52.7681C46.2556 55.9129 35.9012 54.026 31.6171 48.2337C31.1903 47.6194 30.4473 46.7856 29.7359 46.4931C28.9613 46.1859 28.1393 45.9519 27.3014 46.5223C26.5743 46.9904 26.6375 47.9558 26.7798 48.6433C27.3647 51.5687 29.5936 53.3678 32.2178 54.772C37.0078 57.3464 42.3035 57.8583 47.6784 57.9607Z" fill="black"/>
<path d="M74.4108 26.3665C74.4583 28.4582 72.4032 30.623 70.3323 30.6522C68.1823 30.6961 66.2379 28.9701 66.1431 26.9223C66.0482 24.8306 68.0875 22.8414 70.3481 22.8267C72.6403 22.8121 74.3792 24.3187 74.4108 26.3665Z" fill="black"/>
<path d="M21.2472 30.6081C19.2712 30.652 17.5164 29.0723 17.469 27.2C17.4216 25.2546 19.0973 23.5286 21.1207 23.4555C23.2232 23.3823 24.978 24.9474 24.9938 26.9075C24.9938 28.809 23.2074 30.5642 21.2472 30.6081Z" fill="black"/>
</svg>
