<svg width="92" height="85" viewBox="0 0 92 85" fill="none" xmlns="http://www.w3.org/2000/svg">
<rect x="9.08813" y="8.52089" width="72.8824" height="67.2089" fill="#FFFF00" stroke="black" stroke-width="3"/>
<path d="M15.8087 48.2541C15.2712 47.6398 13.8958 49.3219 12.8999 48.5174C11.9039 47.7275 13.2793 46.6305 13.8484 45.9431C14.8286 44.7437 16.0142 43.6613 17.2789 42.7398C17.769 42.3741 18.9072 41.8329 19.4764 42.5058C19.84 42.9299 19.9348 43.3102 19.3499 44.3341C19.0337 44.8753 18.8756 45.1678 18.0378 46.104C18.0378 46.3965 18.512 46.7183 18.8756 47.0108C26.4797 53.1395 35.0639 57.2935 45.3238 57.7469C55.5837 58.215 64.405 55.275 71.108 47.786C71.7087 47.1278 72.5308 46.5135 72.6414 45.7529C72.7205 45.1825 72.4517 44.8899 71.6138 43.8075C71.3451 43.4711 71.2186 42.652 71.7087 42.1401C72.515 41.2625 73.3844 41.7159 73.6848 41.9792C75.7241 43.8222 77.305 45.9869 78.4591 47.9323C78.6804 48.5759 78.3168 49.1025 77.9532 49.4243C77.6528 49.6875 76.8624 49.6583 76.3881 49.4974C75.8348 49.3072 75.3764 48.8538 74.6491 48.3565C67.3139 57.2496 57.4017 61.4914 45.387 61.0819C33.562 60.7162 23.2072 56.0502 15.8087 48.2541Z" fill="black"/>
<ellipse cx="65.4485" cy="30.7164" rx="4.74265" ry="4.38806" fill="white"/>
<ellipse cx="23.7131" cy="28.9612" rx="4.74265" ry="4.38806" fill="white"/>
<path d="M58.7772 32.1794C58.7298 28.3326 61.6702 25.2317 65.3378 25.2463C68.5312 25.2609 71.3768 28.274 71.4084 31.6821C71.4242 34.9146 68.3257 37.9131 64.8952 37.957C61.4331 37.9863 58.8088 35.5143 58.7772 32.1794ZM61.8283 31.7699C61.8599 33.6128 63.2195 34.9439 65.0691 34.9146C66.6816 34.8854 68.2309 33.4227 68.1518 31.96C68.0728 30.1609 67.0452 28.3033 64.5474 28.5666C63.1246 28.7129 61.7967 29.6343 61.8283 31.7699Z" fill="black"/>
<path d="M30.6217 29.2246C30.5901 32.6473 27.5706 35.5434 23.9978 35.558C20.5989 35.5727 17.8956 32.7936 18.0537 29.21C18.2276 24.8073 20.8677 23.447 24.7408 23.1252C27.7761 22.8765 30.6375 26.0652 30.6217 29.2246ZM21.0258 28.9174C21.01 31.0822 22.2747 32.7058 23.9662 32.7204C25.8475 32.7351 27.6022 31.0383 27.6022 29.1807C27.6022 27.4694 25.9265 25.8312 24.2192 25.8751C22.0533 25.9336 21.0258 26.9136 21.0258 28.9174Z" fill="black"/>
</svg>
