<svg width="92" height="85" viewBox="0 0 92 85" fill="none" xmlns="http://www.w3.org/2000/svg">
<path d="M83.6844 42.2785C83.6844 63.6049 66.6976 80.8934 45.7433 80.8934C24.7889 80.8934 7.80209 63.6049 7.80209 42.2785C7.80209 20.9521 24.7889 3.66357 45.7433 3.66357C66.6976 3.66357 83.6844 20.9521 83.6844 42.2785Z" fill="#FFFF00"/>
<path d="M6 40.4647C6.49007 28.6316 11.8493 16.8716 24.5596 8.76831C27.9585 6.60354 32.0371 5.22861 35.9735 3.92682C55.2761 -2.46512 79.0842 9.92384 84.2379 32.5955C87.9213 48.8021 83.5581 63.0632 69.7412 73.931C50.9603 88.7041 23.2158 83.2483 11.5173 62.8731C7.86544 56.5397 6.03162 49.7674 6 40.4647ZM11.5489 40.0552C11.5647 50.0453 14.0467 57.5343 19.2478 64.2334C30.2507 78.4215 50.075 81.5955 64.8562 71.5468C85.1548 57.7391 85.7081 27.1835 65.9945 12.6883C53.964 3.83906 35.7048 3.56115 23.8165 14.502C15.6118 22.0495 11.707 31.1913 11.5489 40.0552Z" fill="black"/>
<path d="M46.8579 45.8445C55.3861 45.0469 64.4806 50.6053 66.8794 58.0838C67.0255 58.5285 67.112 59.0213 67.1444 59.4298C67.2513 60.5811 66.6257 60.8875 66.1327 61.0676C65.6385 61.233 64.6579 60.8595 64.2437 60.4329C63.4504 59.6213 62.9112 58.6165 62.282 57.6765C59.6638 53.8354 56.2039 50.9752 51.3216 49.9713C42.2984 48.1185 33.4781 54.641 32.7901 63.5752C32.7705 63.9285 32.5959 64.527 32.5221 64.796C32.1168 66.0847 31.5223 66.1836 30.7859 66.2922C29.5788 66.4619 29.0846 65.4248 29.1469 64.4086C29.7879 54.4803 36.8115 46.6863 46.8579 45.8445Z" fill="black"/>
<path d="M26.4122 51.2006C25.197 53.0709 23.4731 52.6394 22.9396 52.3427C22.4062 52.046 21.3333 50.9218 22.5485 49.0515C23.7637 47.1812 28.2738 43.0152 28.8073 43.3119C29.3407 43.6087 27.6275 49.3303 26.4122 51.2006Z" fill="#50AAFF"/>
<path d="M69.4374 45.7083C70.7344 47.6247 69.5471 48.8651 69.0195 49.1707C68.4919 49.4764 66.9134 49.8383 65.6165 47.9218C64.3195 46.0053 62.2297 40.2227 62.7573 39.9171C63.2849 39.6115 68.1405 43.7918 69.4374 45.7083Z" fill="#50AAFF"/>
<path d="M26.7729 33.2578C26.7729 30.7898 26.9097 29.6913 27.1709 28.1363C27.2704 27.5228 27.5316 26.781 28.3525 26.4814C29.3226 26.4814 29.6087 27.3945 29.6958 27.9223C30.3799 32.088 30.5789 35.683 30.5664 40.0769C30.5664 41.1183 30.2804 42.1883 29.1361 42.2739C27.8923 42.3595 27.6559 41.2324 27.4445 40.1482C26.947 37.6517 26.7729 35.74 26.7729 33.2578Z" fill="black"/>
<path d="M30.567 33.2578C30.567 30.7898 30.7038 29.6913 30.965 28.1363C31.0645 27.5228 31.3257 26.781 32.1466 26.4814C33.1168 26.4814 33.4028 27.3945 33.4899 27.9223C34.174 32.088 34.373 35.683 34.3605 40.0769C34.3605 41.1183 34.0745 42.1883 32.9302 42.2739C31.6864 42.3595 31.4501 41.2324 31.2386 40.1482C30.7411 37.6517 30.567 35.74 30.567 33.2578Z" fill="black"/>
<path d="M28.6699 31.5025C28.6699 29.0345 28.8067 27.936 29.0679 26.3811C29.1674 25.7676 29.4286 25.0258 30.2495 24.7262C31.2197 24.7262 31.5058 25.6392 31.5928 26.1671C32.2769 30.3327 32.4759 33.9278 32.4635 38.3217C32.4635 39.3631 32.1774 40.433 31.0331 40.5186C29.7893 40.6042 29.553 39.4772 29.3416 38.393C28.844 35.8965 28.6699 33.9848 28.6699 31.5025Z" fill="black"/>
<path d="M61.0718 24.4506C61.159 23.8378 61.3771 22.971 62.1075 22.971C62.8162 22.971 63.3068 23.5837 63.4594 24.1516C64.5606 28.3213 64.9858 32.6704 64.5388 37.0792C64.4733 37.7517 63.9173 38.768 63.3613 38.768C62.5654 38.768 61.9549 37.8115 61.835 37.0941C61.3225 34.1798 60.603 27.7235 61.0718 24.4506Z" fill="black"/>
<path d="M59.1747 22.6953C59.2619 22.0826 59.48 21.2158 60.2105 21.2158C60.9191 21.2158 61.4097 21.8285 61.5624 22.3964C62.6635 26.5661 63.0887 30.9152 62.6417 35.324C62.5763 35.9965 62.0203 37.0128 61.4642 37.0128C60.6684 37.0128 60.0578 36.0563 59.9379 35.3389C59.4255 32.4246 58.7059 25.9683 59.1747 22.6953Z" fill="black"/>
<path d="M57.2777 24.4506C57.3649 23.8378 57.5829 22.971 58.3134 22.971C59.0221 22.971 59.5127 23.5837 59.6653 24.1516C60.7664 28.3213 61.1916 32.6704 60.7446 37.0792C60.6792 37.7517 60.1232 38.768 59.5672 38.768C58.7713 38.768 58.1608 37.8115 58.0408 37.0941C57.5284 34.1798 56.8089 27.7235 57.2777 24.4506Z" fill="black"/>
</svg>
