<svg width="92" height="85" viewBox="0 0 92 85" fill="none" xmlns="http://www.w3.org/2000/svg">
<ellipse cx="44.5809" cy="42.1254" rx="38.8897" ry="38.6149" fill="#FFFF00"/>
<path d="M5.78589 40.4141C6.30758 28.4347 11.6668 16.6747 24.3771 8.58607C27.776 6.4213 31.8546 5.04637 35.791 3.74458C55.1252 -2.63273 78.8859 9.80011 84.0238 32.4132C87.7072 48.6052 83.3598 62.8517 69.5745 73.7341C50.7936 88.5658 22.9543 83.0807 11.2716 62.6323C7.61971 56.2697 5.81751 49.6291 5.78589 40.4141ZM45.1182 77.2885C54.2874 77.1276 61.6859 74.3631 67.7723 68.9219C77.8109 59.941 81.5734 48.7953 79.8502 36.1577C78.4907 26.2114 73.5425 17.9619 64.7686 11.8479C56.5006 6.09951 47.1418 4.9001 37.3561 6.90398C33.973 7.59145 30.6848 9.40518 27.7918 11.2774C10.5602 22.467 6.07045 45.7383 17.848 62.4276C24.3929 71.701 33.5936 76.9667 45.1182 77.2885Z" fill="black"/>
<path d="M67.6934 47.4641C66.7765 46.9375 65.9702 46.645 65.4485 46.1038C65.0533 45.7089 64.6897 45.2262 64.9427 44.451C65.1482 43.822 66.0651 43.705 66.4603 43.8366C69.0213 44.7728 71.5507 45.782 74.0011 46.9375C74.4438 47.1423 74.9971 47.8737 74.6177 48.6781C74.1908 49.5704 73.6217 49.6143 72.6099 49.4387C71.9934 49.3363 71.3294 49.0584 70.5548 48.8098C66.4919 58.4489 58.8563 63.8901 47.7268 64.3874C36.9452 64.8701 28.4875 60.2773 21.6897 52.6128C20.8202 53.0662 19.9665 53.7098 18.9864 53.9584C18.2118 54.1486 16.6467 54.4704 16.457 53.7683C15.9669 52.7005 16.8206 52.1301 17.3739 51.7205C19.35 50.1993 21.4368 48.7659 23.6184 47.508C24.2982 47.1131 25.6103 46.6011 26.2743 47.3763C27.1279 48.371 26.2585 49.0146 25.5945 49.702C25.3099 49.9946 24.9779 50.2578 24.5353 50.6381C31.6177 58.0101 40.0912 62.1787 50.9044 60.5259C59.0618 59.2826 64.4684 54.6313 67.6934 47.4641Z" fill="black"/>
<path d="M59.5834 30.0146C59.5202 28.4934 59.3937 27.5426 59.6624 26.3725C59.8205 25.685 60.6584 24.7196 61.2907 24.6465C62.2551 24.5295 63.0455 25.3779 63.2827 26.0068C64.8003 29.9999 65.4168 34.1393 64.7845 38.3373C64.6738 39.0393 63.6305 40.0778 62.9665 40.1071C62.2709 40.1364 61.1801 39.8146 60.8797 38.6005C60.1525 35.7922 59.6308 30.9653 59.5834 30.0146Z" fill="black"/>
<path d="M25.958 34.929C25.958 32.1792 26.0054 30.9359 26.3374 29.3562C26.4639 28.7272 26.8433 27.6595 27.8551 27.6741C28.7087 27.5571 29.4201 28.6395 29.5466 29.1807C30.2896 32.5448 30.669 37.2986 30.669 41.4819C30.669 42.5935 30.3845 43.8222 28.8036 43.866C27.1279 43.9245 26.8117 42.6813 26.6536 41.4965C26.3216 39.0684 26.0687 37.3717 25.958 34.929Z" fill="black"/>
</svg>
