<svg width="92" height="85" viewBox="0 0 92 85" fill="none" xmlns="http://www.w3.org/2000/svg">
<ellipse cx="45.5294" cy="42.1254" rx="39.8382" ry="38.6149" fill="#FFFF00"/>
<path d="M86.7272 39.99C86.7431 59.9996 71.6298 77.4494 51.0942 81.0476C48.6438 81.4718 45.5927 82.1154 42.6364 81.9837C33.0247 81.5888 25.7526 79.4094 18.5754 73.8073C8.72652 66.099 4.06291 55.9772 4.34747 44.2025C4.71108 28.976 11.8092 16.7333 25.8791 8.63C38.9688 1.08254 52.8015 0.351197 66.5868 7.18194C79.1706 13.413 86.7114 26.0213 86.7272 39.99ZM82.9489 40.6336C82.9489 40.341 82.9331 40.0485 82.9015 39.756C82.617 37.4742 82.4272 35.1778 81.9846 32.9399C78.6015 15.7094 61.6228 4.16881 43.2214 6.50911C15.8563 9.9903 -0.110616 39.8876 13.3427 62.2228C20.4567 74.0267 36.5659 80.4918 48.8809 78.2685C68.3258 74.7581 82.4747 58.9464 82.9489 40.6336Z" fill="black"/>
<path d="M24.9463 54.9241C36.0757 62.3691 55.4573 63.9781 65.0217 53.0079C65.1482 52.8617 65.2746 52.7447 65.2272 52.7154C64.7687 51.8963 63.3301 50.8871 64.4526 49.9948C65.6066 49.0733 66.5235 50.2288 67.2823 50.9309C68.389 51.9548 69.5114 52.9933 70.4283 54.1635C70.8077 54.6608 71.693 55.4653 70.8077 56.1673C70.0489 56.8548 69.3533 56.5038 68.4522 55.8748C68.0886 55.6262 67.6934 55.3044 67.4404 55.1142C66.2073 56.1673 65.1165 57.1912 63.9309 58.1273C56.9592 63.6417 48.7702 64.8703 40.0279 63.5978C33.9257 62.7056 28.2978 60.5993 23.3812 57.0157C23.239 56.9133 22.7489 56.4306 22.5276 56.416C22.0849 56.3867 21.9743 56.6647 21.3893 56.8548C20.9783 56.9864 20.7412 57.3814 19.9191 56.5769C19.2393 55.9333 19.7136 55.2605 20.0298 55.0265C21.6897 53.7978 23.4445 52.6715 25.2467 51.6184C25.5787 51.4282 26.3375 51.2674 26.7169 51.8817C27.1279 52.5399 26.7485 52.8909 26.4956 53.2566C26.1162 53.7978 25.5312 54.2366 24.9305 54.7778C24.9147 54.8363 24.9147 54.8948 24.9463 54.9241Z" fill="black"/>
<path d="M68.3891 42.5494C68.5788 42.564 68.7843 42.5201 68.9582 42.447C70.1913 41.8473 70.1438 40.136 70.1438 39.0974C70.128 36.9034 69.8435 35.0751 69.8277 32.9688C69.8277 32.1058 69.7802 31.1843 70.0332 30.3798C70.1913 29.8825 70.8869 29.2536 71.3769 29.2243C71.867 29.1951 72.6258 29.3998 72.863 30.2043C73.7641 33.6709 73.7957 38.2491 73.1159 41.2183C72.5468 43.7195 70.1438 44.9482 68.0887 44.9628C65.8596 44.9774 63.4093 43.4855 62.7453 40.9551C62.0339 38.2345 61.9865 35.353 61.6703 32.5446C61.6545 32.3837 61.6545 31.8571 61.6703 31.6962C61.7968 30.7162 62.1762 30.1604 63.5357 30.2336C64.5317 30.2628 64.8163 31.5792 65.006 32.3398C65.338 33.6855 65.2273 35.1189 65.4802 36.4939C65.8755 38.5855 66.1126 42.4031 68.3891 42.5494Z" fill="black"/>
<path d="M25.7368 33.2617C25.8317 32.662 25.721 31.799 27.0332 31.6088C28.1872 31.4479 28.7089 32.5303 28.7563 33.0423C29.0251 35.9238 29.3254 38.8345 29.0725 41.7014C28.8354 44.3635 26.2585 46.6014 23.9346 46.8646C21.2629 47.1718 18.3067 45.6652 17.4214 42.8276C16.5993 40.2094 16.2516 37.0793 16.2674 34.6366C16.2674 34.227 16.4096 33.4518 17.2159 33.3348C18.2435 33.13 18.4806 33.9784 18.6229 34.4318C19.2236 36.2602 19.524 38.1617 20.1405 39.99C20.5041 41.0724 21.0891 42.1694 21.8637 43.0178C23.1284 44.3927 24.7883 44.1294 25.2942 42.4035C25.7843 40.7067 25.5313 34.5049 25.7368 33.2617Z" fill="black"/>
</svg>
