<svg width="92" height="85" viewBox="0 0 92 85" fill="none" xmlns="http://www.w3.org/2000/svg">
<ellipse cx="45.5295" cy="41.2478" rx="36.0441" ry="35.9821" fill="#FFFF00"/>
<ellipse cx="57.765" cy="74.536" rx="7.45533" ry="2.19545" transform="rotate(-18.8126 57.765 74.536)" fill="#FFFF00"/>
<ellipse cx="76.9333" cy="62.7914" rx="2.87427" ry="7.23499" transform="rotate(27.9881 76.9333 62.7914)" fill="#FFFF00"/>
<ellipse cx="27.0308" cy="10.892" rx="8.4996" ry="2.5" transform="rotate(-35.7888 27.0308 10.892)" fill="#FFFF00"/>
<ellipse cx="73.6839" cy="20.1633" rx="3.41074" ry="9.32567" transform="rotate(-32.73 73.6839 20.1633)" fill="#FFFF00"/>
<ellipse cx="73.0439" cy="61.4423" rx="16.3253" ry="4.59756" transform="rotate(-54.4509 73.0439 61.4423)" fill="#FFFF00"/>
<path d="M48.4856 57.8199C41.7827 58.0832 35.633 57.1032 30.8429 52.4811C30.0209 51.6913 29.2463 50.8137 28.7562 49.8337C28.519 49.3802 28.3135 48.5172 29.2304 48.0492C29.7996 47.7566 30.5268 48.0638 30.9852 48.3856C32.1393 49.1755 33.1036 50.214 34.2735 51.0038C39.7749 54.7629 45.8613 55.9331 52.4536 54.1486C55.7893 53.2563 58.1132 50.9892 60.1683 48.5026C60.9271 47.5958 61.765 46.2208 63.1404 47.1716C64.5157 48.1369 63.2827 49.3071 62.5713 50.1847C58.9827 54.602 54.651 57.8492 48.4856 57.8199Z" fill="black"/>
<path d="M69.4954 33.8026C69.4796 35.5871 68.0094 37.0205 66.2704 36.9913C64.4682 36.962 62.9664 35.4847 63.0138 33.8026C63.0612 31.9596 64.4524 30.4969 66.1439 30.5262C68.041 30.5408 69.527 31.9889 69.4954 33.8026Z" fill="black"/>
<path d="M31.1038 3.9942C33.9866 3.51813 36.7427 3.74909 39.511 4.73737C42.1687 5.68644 44.9163 5.84477 47.6965 5.14069C53.0262 3.78907 57.8799 5.19013 62.592 7.28912C64.7973 8.25793 67.0162 9.26895 69.3401 9.74518L70.0637 9.90436C73.6312 10.7458 76.382 12.2828 78.3889 14.4229C80.529 16.7051 81.8065 19.6552 82.342 23.1309C82.8689 26.5729 82.5653 30.158 82.2971 33.6172C82.0626 36.6119 82.4066 39.4427 83.4368 42.2589C86.0786 49.4916 85.7717 56.5815 82.3567 63.4981L82.0159 64.1671C79.7225 68.5589 75.9741 71.5157 71.4563 73.7676C68.3121 75.3318 65.1864 76.9384 62.1409 78.6612V78.6622C59.6359 80.0736 56.9495 80.5685 55.304 80.4932V80.4922C46.2403 80.236 38.7185 78.5619 31.5481 75.6006L30.8557 75.3096C29.1077 74.5665 27.3023 73.9564 25.4963 73.338L23.6926 72.712C20.5045 71.5763 17.6661 69.819 16.2014 66.8829C12.9483 60.3517 9.52573 53.8124 6.99048 46.9952C4.59976 40.5668 6.08291 34.1292 10.3635 28.6612C13.6269 24.495 15.606 20.0209 17.0383 15.0694H17.0393C18.844 8.85241 23.8268 5.42683 30.5256 4.09869L31.1038 3.9942ZM36.5071 7.65436C35.0547 7.20156 33.4539 6.80713 32.0237 6.96198C26.1339 7.5963 22.0402 10.8004 20.5706 15.8672C18.9319 21.534 16.1804 26.4593 12.7883 31.3135L12.7874 31.3126C9.32141 36.2819 8.40942 41.9251 10.8684 47.6133V47.6143C12.7165 51.9001 14.6894 56.1448 16.6809 60.3819L18.675 64.6172V64.6182C19.9538 67.3551 22.2035 69.1858 25.2649 70.2354C28.1984 71.2423 31.1822 72.1972 34.053 73.3858H34.052C40.3195 75.9583 46.9723 76.8331 55.2473 77.2715C57.6087 77.2982 59.4057 76.6091 61.8567 74.8614H61.8577C63.5513 73.6639 65.5824 72.8246 67.4036 71.8741H67.4045C68.5002 71.3085 69.7095 70.826 70.8254 70.3116C71.9544 69.7911 73.0107 69.2283 73.8684 68.4844L74.2131 68.1797C81.363 61.7445 82.9622 53.5764 80.4954 45.003C78.8584 39.2977 78.3645 33.8223 79.0803 28.0528C79.5314 24.3674 78.668 21.1536 76.7483 18.6172C74.8267 16.0783 71.8322 14.1994 67.9944 13.2159V13.2149C65.2827 12.5211 62.6853 11.3426 60.1614 10.2188V10.2178C56.9205 8.78439 53.6532 7.5774 50.1682 8.34772H50.1672C45.4727 9.38182 41.002 9.05539 36.5071 7.65436Z" fill="black" stroke="black" stroke-width="0.5"/>
<path d="M28.1553 36.1723C28.1395 37.9568 26.6693 39.3902 24.9303 39.361C23.1281 39.3317 21.6263 37.8544 21.6737 36.1723C21.7211 34.3293 23.1123 32.8666 24.8038 32.8959C26.6851 32.9105 28.1711 34.3586 28.1553 36.1723Z" fill="black"/>
</svg>
