<svg width="92" height="85" viewBox="0 0 92 85" fill="none" xmlns="http://www.w3.org/2000/svg">
<path d="M85.682 41.5827C85.682 62.9092 68.2705 80.1977 46.7923 80.1977C25.3141 80.1977 7.90256 62.9092 7.90256 41.5827C7.90256 20.2563 25.3141 2.96782 46.7923 2.96782C68.2705 2.96782 85.682 20.2563 85.682 41.5827Z" fill="#FFFF00"/>
<path d="M30.134 26.9075C30.4227 26.6101 30.8184 26.6898 30.9936 26.7447C31.1942 26.8076 31.3854 26.9195 31.4993 26.9881C31.7846 27.1599 31.8984 27.4336 31.9551 27.6531C32.0035 27.7205 32.0474 27.7821 32.0811 27.8331C32.2597 28.1038 32.3886 28.3924 32.446 28.9044C32.4734 29.1486 32.4765 29.439 32.4553 29.7066C32.4349 29.9625 32.389 30.2487 32.2941 30.4591C32.2245 30.6132 32.1705 30.8108 32.1163 31.0436C32.0658 31.2604 32.011 31.5259 31.9477 31.7498C31.8551 32.0768 31.7995 32.3541 31.7624 32.6445C31.7312 32.8884 31.6762 33.1159 31.6179 33.3387C31.5584 33.5662 31.4952 33.7855 31.4382 34.0449C31.2285 35 30.9512 35.5428 30.6564 36.299C30.5196 36.65 30.4153 36.9603 30.2766 37.3737C30.2117 37.5672 30.1399 37.7319 30.0728 37.8794C30.0039 38.031 29.9464 38.1515 29.8913 38.2873C29.7829 38.5543 29.6066 38.8148 29.4485 39.0329C29.2752 39.2721 29.137 39.443 29.0298 39.6072C28.738 40.0541 28.5816 40.3226 28.0887 40.8087C28.0761 40.8211 28.0368 40.8608 28.0072 40.8876C27.9745 40.9172 27.9086 40.9743 27.8127 41.0144C27.5543 41.1222 27.3277 41.0231 27.2106 40.9544C26.7968 40.7118 26.5378 40.4973 26.3565 40.2945C26.1863 40.1041 26.0785 39.9084 26.0286 39.8334C25.8511 39.5668 25.6955 39.4194 25.4691 39.1409C25.3508 39.0531 25.2307 38.9559 25.1542 38.8958C25.0498 38.8139 24.9624 38.7548 24.867 38.7124C24.6542 38.6178 24.2102 38.4538 23.9482 38.0319C23.8464 37.8679 23.6906 37.6248 23.5739 37.3257C23.5336 37.3198 23.4909 37.3095 23.448 37.2914C23.2859 37.223 23.2238 37.0977 23.2108 37.072C23.1885 37.0276 23.1767 36.9882 23.1719 36.9675C23.1002 36.6592 22.9921 36.1205 22.9792 35.0511C22.9046 34.902 22.8371 34.7541 22.7847 34.6123C22.7756 34.6077 22.7638 34.6069 22.7551 34.602C22.5478 34.4858 22.4107 34.2961 22.3253 34.1478C22.2668 34.0463 22.2421 33.9255 22.2289 33.841C22.2131 33.7395 22.2036 33.6157 22.1993 33.4742C22.1911 33.2013 22.206 32.8399 22.2549 32.3943C22.2328 32.1612 22.1571 32.0517 22.0529 31.7944C22.0383 31.7582 22.0246 31.7297 21.9974 31.6692C21.9724 31.6138 21.9425 31.5462 21.914 31.4635C21.8623 31.3135 21.8222 31.1292 21.7917 30.8756C21.7302 30.7644 21.6698 30.6584 21.6213 30.5636C21.3775 30.087 21.3915 29.6903 21.5083 29.3655C21.5624 29.2151 21.634 29.0905 21.6861 29.0038C21.7147 28.9563 21.7329 28.9281 21.7491 28.8993C21.7638 28.8732 21.7676 28.865 21.7676 28.865C21.8411 28.653 22.0166 28.4985 22.1437 28.4056C22.2021 28.342 22.2611 28.2847 22.3197 28.2393C22.492 28.1063 22.6935 28.0453 22.8384 28.0045C22.9608 27.9701 23.0618 27.9398 23.1738 27.9051C23.2632 27.7996 23.3775 27.6995 23.5258 27.624C23.8645 27.4517 24.2763 27.4633 24.5577 27.4954C24.8613 27.5301 25.1356 27.604 25.2728 27.6463C25.3147 27.6592 25.3571 27.6719 25.3987 27.6874C25.5646 27.7268 25.7064 27.7806 25.823 27.8331C25.9792 27.9035 26.038 27.9382 26.1435 27.9805C26.5112 28.1278 26.8285 28.3296 27.1365 28.5479C27.4112 28.7426 27.6974 28.9987 27.9331 29.2387C27.9692 29.1811 28.0112 29.121 28.0535 29.0535C28.169 28.8693 28.3332 28.7223 28.4778 28.6062C28.6109 28.4991 28.7955 28.3677 28.9057 28.2839C29.178 28.0768 29.4063 27.8823 29.5986 27.7131C29.6781 27.4694 29.7807 27.2887 29.8913 27.1509C29.9556 27.0709 30.0184 27.0099 30.0673 26.9658C30.0895 26.9457 30.1117 26.9258 30.1229 26.9161C30.1279 26.9117 30.1319 26.9093 30.134 26.9075ZM60.1201 25.5277C60.495 25.3976 60.9067 25.4785 61.1798 25.5585C61.4741 25.6448 61.7306 25.7673 61.8578 25.8345C61.8916 25.8523 61.9229 25.8747 61.956 25.8945C62.1204 25.9651 62.256 26.0458 62.3636 26.1224C62.5044 26.2228 62.5539 26.2684 62.6489 26.3298C62.9827 26.5457 63.2552 26.8109 63.5141 27.0909C63.7406 27.336 63.9663 27.6447 64.1476 27.9308C64.1931 27.8775 64.2459 27.8234 64.2977 27.7628C64.4445 27.5913 64.6318 27.4634 64.7979 27.3634C64.9507 27.2715 65.1591 27.1622 65.2851 27.0909C65.5982 26.9137 65.8641 26.7432 66.0892 26.5938C66.2156 26.3478 66.3534 26.1742 66.4893 26.047C66.5671 25.9743 66.6384 25.921 66.695 25.8825C66.7207 25.865 66.7466 25.8483 66.7598 25.8396C66.7772 25.8282 66.7788 25.8278 66.7746 25.8311L66.9043 25.7488C67.2125 25.5978 67.5284 25.7218 67.675 25.8002C67.8619 25.9001 68.0272 26.0492 68.1252 26.1396C68.3727 26.368 68.4252 26.6742 68.4345 26.9092C68.4689 26.9889 68.5022 27.0617 68.5253 27.1218C68.6443 27.431 68.7102 27.7492 68.6643 28.2908C68.6423 28.5497 68.5865 28.8537 68.5124 29.1307C68.4411 29.3967 68.3414 29.6852 68.2104 29.8849C68.1079 30.0412 68.0126 30.2451 67.9121 30.4831C67.8177 30.7068 67.7132 30.9761 67.6064 31.2013C67.4483 31.5347 67.3356 31.8209 67.2396 32.1252C67.161 32.3745 67.062 32.6036 66.9599 32.8297C66.8558 33.0599 66.7485 33.2843 66.6394 33.5513C66.2423 34.5232 65.8636 35.0469 65.4185 35.8036C65.2123 36.1542 65.0474 36.4667 64.8275 36.8818C64.7258 37.0737 64.6228 37.2341 64.5274 37.3788C64.4292 37.5278 64.347 37.6486 64.2644 37.7851C64.107 38.045 63.8842 38.2892 63.6845 38.4947C63.4674 38.718 63.294 38.879 63.1547 39.0364C62.7777 39.4619 62.5718 39.7191 61.9912 40.1522C61.9757 40.1638 61.9291 40.1992 61.8949 40.2225C61.8582 40.2476 61.7822 40.2979 61.6781 40.3254C61.5544 40.3578 61.4242 40.3501 61.3039 40.3048C61.2002 40.2656 61.1225 40.206 61.0723 40.1608C60.7132 39.8371 60.5027 39.5687 60.3665 39.3278C60.2388 39.1017 60.1742 38.8829 60.1386 38.7913C60.0166 38.4779 59.8896 38.2913 59.7236 37.9616C59.6248 37.8497 59.5262 37.7279 59.4624 37.6514C59.3754 37.547 59.3023 37.471 59.2179 37.4114C59.0237 37.2744 58.6225 37.0294 58.4528 36.5492C58.3837 36.3539 58.2794 36.07 58.2267 35.735C58.1842 35.7208 58.1426 35.7046 58.1063 35.6802C57.9592 35.5812 57.9267 35.4413 57.9211 35.4196C57.9094 35.3743 57.9068 35.3353 57.9062 35.3151C57.8979 34.9799 57.8998 34.3933 58.1045 33.2548C58.0588 33.0769 58.0199 32.9032 57.997 32.7405C57.9871 32.7329 57.9746 32.7278 57.9655 32.72C57.7858 32.5644 57.6921 32.3456 57.6395 32.18C57.6051 32.0717 57.604 31.9481 57.608 31.8578C57.6127 31.7508 57.6283 31.6211 57.6524 31.4721C57.6993 31.1824 57.785 30.8 57.9248 30.3322C57.9505 30.0724 57.8962 29.9323 57.847 29.6517C57.8396 29.6097 57.8299 29.5751 57.8155 29.5078C57.8022 29.4459 57.7876 29.3712 57.7766 29.2815C57.7563 29.1172 57.7531 28.9174 57.7747 28.6439C57.7354 28.5126 57.6984 28.3876 57.6691 28.2771C57.5284 27.7464 57.6202 27.344 57.7932 27.0326C57.8742 26.8869 57.9672 26.7696 58.0359 26.6864C58.0729 26.6416 58.0971 26.6136 58.1193 26.5852L58.1489 26.5441C58.2565 26.3454 58.4508 26.2132 58.5954 26.1344C58.666 26.0756 58.7397 26.0266 58.8085 25.987C59.0044 25.8743 59.2152 25.8409 59.3679 25.8208C59.4948 25.8041 59.5996 25.791 59.7144 25.7728C59.8226 25.6755 59.9553 25.5849 60.1201 25.5277Z" fill="#FF0000"/>
<path d="M46.3021 2.23651C57.3209 2.38278 66.2371 6.5368 74.5841 13.2359C91.7841 27.0437 93.033 60.4807 65.9525 75.5756C47.2665 85.9899 22.4466 81.0461 10.4635 62.075C-2.78426 41.1147 7.72861 13.192 32.09 4.64994C36.6588 3.04098 41.3856 2.19263 46.3021 2.23651ZM83.0418 38.3356C83.2948 30.8759 79.2319 22.2314 72.1496 15.4299C63.0753 6.72695 51.3768 3.74307 38.4926 6.50755C14.7793 11.5684 1.91096 36.361 12.0602 57.0873C19.2374 71.7434 36.1054 79.949 52.2304 76.6287C70.3948 72.8843 83.1209 58.0672 83.0418 38.3356Z" fill="black"/>
<path d="M46.3082 1.88521C57.4412 2.03315 66.4401 6.23469 74.8326 12.9702C83.5392 19.9596 88.1821 31.8882 87.2524 43.9489C86.3217 56.021 79.8055 68.2642 66.1477 75.8772C47.2846 86.3896 22.2283 81.3954 10.1363 62.2519C-3.01929 41.4373 7.04573 13.8195 30.8131 4.73917L31.9561 4.32093C36.5653 2.6979 41.3412 1.84088 46.3082 1.88521ZM46.3021 2.23651C41.3856 2.19263 36.6588 3.04098 32.09 4.64994L30.9576 5.06484C7.40574 14.0636 -2.57713 41.4424 10.4635 62.075C22.2594 80.7491 46.4933 85.8311 65.0713 76.052L65.9525 75.5756C92.6091 60.7165 91.8163 28.0843 75.3792 13.8975L74.5841 13.2359C66.2371 6.5368 57.3209 2.38278 46.3021 2.23651ZM38.4926 6.50755C51.3768 3.74307 63.0753 6.72695 72.1496 15.4299C79.2319 22.2314 83.2948 30.8759 83.0418 38.3356C83.1209 58.0672 70.3948 72.8843 52.2304 76.6287L51.4733 76.7753C35.8324 79.6438 19.6476 71.7709 12.4038 57.7696L12.0602 57.0873C2.0694 36.6845 14.383 12.341 37.3898 6.75836L38.4926 6.50755ZM71.8759 15.6733C62.899 7.06404 51.3393 4.11161 38.5792 6.8492C15.1076 11.8588 2.35272 36.4109 12.4057 56.9416C19.5144 71.4579 36.2112 79.568 52.1476 76.2868C70.1223 72.5814 82.7401 57.9189 82.6617 38.337V38.325C82.9107 30.9818 78.9056 22.4242 71.8759 15.6733Z" fill="black"/>
<path d="M73.2087 50.0077C68.3238 61.3728 59.6131 68.0134 46.4444 68.1597C35.1569 68.2767 26.8573 63.1134 21.8143 53.4743C21.4981 53.6059 21.1187 53.7815 20.7551 53.8985C20.2334 54.074 19.933 54.191 19.4587 53.6352C19.2374 53.3719 18.8896 52.9039 19.5378 52.4212C21.1345 51.2071 22.8576 50.154 24.5966 49.1448C24.8654 48.9839 25.4977 48.9692 25.8613 49.4812C26.2565 50.0516 26.0036 50.4173 25.7665 50.7098C25.3238 51.251 24.6915 51.6606 24.0591 52.1725C30.0981 60.7292 38.1448 65.8779 49.6536 64.8101C59.8029 63.874 67.3595 56.9116 70.126 48.7059C70.2525 48.3403 69.8098 48.077 69.383 47.5943C68.6716 46.8191 68.1815 46.6874 68.9878 45.4442C69.5727 44.6689 70.4738 45.1224 70.9955 45.371C72.6554 46.1755 74.2995 47.0677 75.754 48.1501C76.3231 48.5743 77.3665 49.2033 76.6867 50.3295C76.0543 51.4704 75.1848 50.7245 74.1573 50.4465C73.8727 50.3295 73.5882 50.1686 73.2087 50.0077Z" fill="black"/>
<path d="M27.8216 26.8533C28.7227 25.5076 29.7029 24.4399 31.4893 24.7763C33.1966 25.0981 33.8922 26.473 33.908 27.7456C33.9554 30.2614 33.908 32.8503 33.3073 35.293C32.6907 37.8088 31.426 40.2077 30.3036 42.5918C29.5131 44.2739 28.2642 44.6103 26.9047 43.3817C22.5415 39.4032 19.9014 34.6348 20.1859 28.8133C20.265 27.1605 21.2293 25.8002 23.0157 25.2444C24.9444 24.6447 26.4304 25.4638 27.8216 26.8533ZM31.3312 27.1312C31.3312 27.1312 30.9834 26.6632 30.3984 26.8241C29.9558 26.7948 29.4657 28.5354 29.1812 29.4569C28.9124 30.3199 28.9598 30.9488 28.2959 31.0512C27.2367 31.139 27.3157 30.3053 26.8731 29.8957C26.6676 29.6909 25.6716 27.0873 24.2488 27.57C23.3319 27.8772 23.2845 29.1205 23.3319 29.8665C23.5532 33.6548 25.4187 36.902 27.6319 40.3832C29.6554 35.8927 32.6749 29.8665 31.3312 27.1312Z" fill="black"/>
<path d="M63.9289 25.6392C65.083 25.0395 66.1738 24.5276 67.2488 24.7324C68.8455 25.0395 69.1616 26.59 69.3039 27.9357C69.7624 32.2213 67.7547 35.8488 65.5888 39.4177C65.0988 40.2222 64.4032 40.9243 63.9447 41.758C62.6326 44.1276 60.3719 43.6888 59.123 41.6557C56.5146 37.37 55.0286 32.6601 55.5028 27.6431C55.6767 25.727 56.4513 23.8986 58.7436 23.4013C61.0517 22.8748 63.0594 24.2204 63.9289 25.6392ZM61.0833 39.6079C61.3205 40.6464 61.5576 39.8419 61.7789 39.6371C63.3598 37.4431 64.9565 35.2491 65.8892 32.8357C66.6164 30.9488 68.5293 26.1658 66.5216 26.6485C66.0315 26.6777 65.5256 28.0673 65.0988 28.7694C64.751 29.3252 64.0396 30.2174 63.7392 30.2613C62.5852 30.2906 62.7275 29.3252 62.5061 28.7694C61.9844 27.5115 62.0319 25.5368 60.0874 25.7709C58.1587 26.0049 58.38 27.9795 58.633 29.2667C59.2969 32.7333 60.2455 36.1706 61.0833 39.6079Z" fill="black"/>
</svg>
