<svg width="92" height="85" viewBox="0 0 92 85" fill="none" xmlns="http://www.w3.org/2000/svg">
<path d="M5.78613 40.2677C6.30782 28.4345 11.667 16.6745 24.3773 8.58586C27.7762 6.42108 31.8549 5.04616 35.7913 3.74437C55.1255 -2.63295 78.8861 9.78526 84.024 32.413C87.7075 48.605 83.36 62.8515 69.5747 73.7339C50.7938 88.5656 22.9545 83.0805 11.256 62.6321C7.63576 56.3133 5.80194 49.5557 5.78613 40.2677ZM11.335 40.0482C11.3666 49.8775 13.8328 57.3226 18.9707 63.9924C29.9578 78.2682 49.9086 81.4862 64.7056 71.3497C84.8461 57.5566 85.4942 27.3229 66.0177 12.7253C53.9556 3.68586 35.5225 3.33481 23.5553 14.3927C15.3663 21.9548 11.4773 31.1112 11.335 40.0482Z" fill="black"/>
<ellipse cx="45.5295" cy="41.2478" rx="36.0441" ry="35.9821" fill="#FFFF00"/>
<ellipse cx="48.3751" cy="56.1672" rx="6.63971" ry="7.0209" fill="#FF383C"/>
<path d="M56.5957 56.2696C56.5641 57.9078 55.8211 60.1603 54.2244 62.1203C51.4737 65.5137 46.399 66.0111 42.8895 63.2612C39.3641 60.4967 38.1152 55.1872 40.4391 51.5012C41.9409 49.1024 46.2409 46.06 49.8454 47.1863C53.8134 48.4296 56.5957 51.4573 56.5957 56.2696ZM43.1424 56.1818C43.1424 57.3812 43.2531 58.2149 44.0435 59.3412C46.3042 62.5591 50.5567 62.3105 52.359 58.8731C52.8174 58.0102 53.0704 57.0155 53.2284 56.0502C53.7185 52.9639 51.2365 50.1409 48.0115 50.0239C45.4821 49.9361 43.1424 51.8961 43.1424 56.1818Z" fill="black"/>
<path d="M59.6783 26.2114C59.8522 25.129 60.6585 24.7049 61.275 24.6464C61.8757 24.5878 62.8559 24.6464 63.2037 25.8458C64.4526 30.7896 64.7688 32.8228 64.7688 37.3717C64.7688 39.4634 63.4566 40.1216 62.9982 40.1362C62.3342 40.1508 61.6228 39.829 60.8166 38.4541C59.8838 36.8744 58.9511 30.9359 59.6783 26.2114Z" fill="black"/>
<path d="M26.3376 29.3267C26.4798 28.6977 26.6854 27.8347 27.8868 27.6592C28.8828 27.6007 29.4203 28.6392 29.5626 29.1804C30.3846 32.3691 31.0012 35.3968 30.6692 41.4816C30.6059 42.5932 30.3688 43.7926 28.7879 43.8511C27.207 43.9097 26.9383 42.7395 26.6695 41.6279C25.9898 38.7025 25.642 32.2959 26.3376 29.3267Z" fill="black"/>
</svg>
