<svg width="92" height="85" viewBox="0 0 92 85" fill="none" xmlns="http://www.w3.org/2000/svg">
<rect x="9.08813" y="8.5209" width="72.8824" height="67.2089" fill="#FFFF00" stroke="black" stroke-width="3"/>
<path d="M48.089 62.9282C39.5048 62.5918 30.9997 60.0614 23.3956 55.1029C22.542 54.5471 21.7515 53.8011 21.1982 52.982C20.8662 52.4993 20.5659 51.7241 21.0401 51.1244C21.5934 50.4369 22.3365 50.5832 22.9846 50.6563C23.696 50.7441 24.36 51.1829 25.024 51.5193C32.628 55.4539 40.5956 58.3208 49.4802 58.3793C55.7089 58.4232 61.3368 56.5948 66.6486 53.7426C67.6762 53.1868 68.7353 52.6017 69.842 52.2799C71.0276 51.9288 71.5177 52.2799 71.8023 52.6748C72.2449 53.3038 71.8971 54.1083 71.4861 54.4739C70.3953 55.4978 69.1148 56.3608 67.8501 57.2238C62.1747 61.0706 55.7879 62.9282 48.089 62.9282Z" fill="black"/>
<path d="M36.6957 23.2831C37.1519 22.9437 37.6782 22.5602 38.1745 22.4319C39.3519 22.1287 39.9289 22.4015 40.3761 22.8152C41.0021 23.3944 40.8765 24.2139 40.5756 24.7405C40.0337 25.697 39.0701 26.5679 38.224 27.33C34.3578 30.8244 30.4574 34.3091 26.4905 37.7104C25.3875 38.6482 24.1024 39.9614 22.4269 38.7811C21.3474 38.0216 21.7521 36.6336 23.5529 34.9054C25.6953 32.8404 33.7364 25.4626 36.6957 23.2831Z" fill="black"/>
<path d="M67.0382 24.3616C67.4941 24.0225 68.0201 23.6393 68.5162 23.5112C69.693 23.2084 70.27 23.4813 70.7171 23.8951C71.3431 24.4743 71.2179 25.2934 70.9173 25.8198C70.3759 26.7758 69.4129 27.6461 68.5675 28.4076C64.7038 31.8997 60.806 35.382 56.8417 38.781C55.7394 39.7181 54.4552 41.0304 52.7798 39.85C51.7004 39.0905 52.1044 37.703 53.904 35.976C56.0449 33.9124 64.0807 26.5395 67.0382 24.3616Z" fill="black"/>
<path d="M28.7258 32.1946C26.876 30.483 24.9926 28.8026 23.1742 27.0374C22.1719 26.0686 21.1413 24.9289 22.1394 23.7838C23.1172 22.682 24.5667 23.2371 25.6516 24.1788C30.377 28.3027 35.0465 32.4783 39.6357 36.7036C41.0064 37.9719 40.7573 38.9411 40.1957 39.5592C39.2918 40.5433 38.0355 40.1049 36.9459 39.2415C34.1342 36.9917 28.6832 32.2586 28.7258 32.1946Z" fill="black"/>
<path d="M59.0788 32.1945C57.229 30.483 55.3457 28.8025 53.5273 27.0373C52.5249 26.0685 51.4943 24.9289 52.4924 23.7838C53.4703 22.682 54.9198 23.2371 56.0046 24.1788C60.73 28.3027 65.3995 32.4783 69.9887 36.7036C71.3594 37.9718 71.1103 38.9411 70.5487 39.5592C69.6448 40.5433 68.3886 40.1049 67.2989 39.2415C64.4872 36.9917 59.0362 32.2586 59.0788 32.1945Z" fill="black"/>
</svg>
