<svg width="92" height="85" viewBox="0 0 92 85" fill="none" xmlns="http://www.w3.org/2000/svg">
<path d="M64.2207 27.436C64.4923 27.413 64.7341 27.4848 64.9265 27.6023L65.1025 27.7342L65.2655 27.9022C65.6174 28.312 65.7753 28.8352 65.8658 29.1998C65.9235 29.4323 65.9665 29.6652 66.0029 29.8614C66.0227 29.9687 66.0425 30.0611 66.0584 30.1425C66.2092 30.2406 66.3363 30.3743 66.4215 30.5402L66.4753 30.6619L66.7254 31.4401C66.7644 31.502 66.8054 31.5682 66.8495 31.6389C67.1485 32.1183 67.291 32.5697 67.3608 32.9279C67.4251 33.2583 67.4324 33.5886 67.4312 33.5758C67.4333 33.5996 67.4387 33.6617 67.4331 33.7353C67.4305 33.7681 67.4238 33.8515 67.3886 33.9512C67.382 33.9698 67.3599 34.0164 67.3256 34.0781C67.3635 34.1999 67.415 34.408 67.4368 34.6814C67.488 34.9435 67.5462 35.267 67.5776 35.5625C67.6899 36.6222 67.7182 37.2592 67.7313 37.6845C67.9218 37.7098 68.078 37.7803 68.1815 37.8542C68.3192 37.9525 68.3931 38.0619 68.4224 38.1079C68.4839 38.2046 68.5117 38.2923 68.5187 38.3136L68.552 38.4421L68.5854 38.6187C68.6161 38.8173 68.6367 39.1025 68.628 39.6711C68.6132 40.6406 68.5841 41.7719 68.5335 42.6142C68.5087 43.0266 68.478 43.406 68.4335 43.665C68.4329 43.6685 68.4304 43.6717 68.4298 43.6752C68.4309 43.7479 68.4365 43.8216 68.4372 43.8964C68.4401 44.2056 68.4235 44.4964 68.3964 44.7637C68.4206 45.0314 68.4429 45.2954 68.4631 45.5367C68.4805 45.7437 68.5228 45.9514 68.5743 46.1692C68.6192 46.3591 68.6912 46.63 68.7317 46.8377C68.8252 47.3168 68.8857 47.7795 68.9615 48.3307C69.0693 49.115 69.1843 49.9429 69.1838 50.691C69.1832 51.4319 69.0729 52.2312 68.6076 52.8953C68.5893 52.9215 68.5576 52.9532 68.5224 52.993C68.5556 53.3247 68.5556 53.7043 68.4909 54.1826C68.3825 54.9841 68.1933 55.576 67.9759 56.0372C67.9071 56.3686 67.8256 56.7366 67.7054 57.5285C67.6853 57.6608 67.6539 57.9382 67.6091 58.2998C67.5659 58.6475 67.5121 59.0555 67.4553 59.4088C67.427 59.5848 67.3975 59.7568 67.3645 59.9059C67.3361 60.0346 67.291 60.2155 67.22 60.367C67.1999 60.41 67.1676 60.4718 67.12 60.5384C67.0786 60.5962 66.9844 60.7181 66.818 60.8161C66.739 60.8626 66.6413 60.8968 66.5346 60.9224C66.4815 61.0858 66.4429 61.2333 66.403 61.3749C66.6393 62.1722 66.1706 62.8728 65.8639 63.2621C65.6494 63.9658 65.4424 64.5986 65.2618 65.0705C65.1463 65.3724 65.0319 65.6454 64.9302 65.8315C64.9036 65.8803 64.8687 65.9386 64.8283 65.9961C64.8001 66.0362 64.7169 66.1512 64.5782 66.2515C64.5287 66.2872 64.4361 66.345 64.3059 66.3886C64.2986 66.4104 64.2926 66.4324 64.2855 66.4537C64.2397 66.5916 64.2027 66.7448 64.1595 66.9285C64.1198 67.0976 64.0709 67.3097 64.0095 67.5045C63.8872 67.8916 63.7241 68.2522 63.5482 68.6066C63.4348 68.835 63.1775 69.4738 62.6423 69.8836C62.3967 70.0715 61.9982 70.3969 61.5159 70.5967C61.5266 70.6043 61.5348 70.6131 61.5437 70.619C61.5582 70.6286 61.566 70.6334 61.5677 70.6344C61.5657 70.6333 61.5557 70.6286 61.5418 70.6224C61.5326 70.6183 61.5174 70.6123 61.4973 70.6052C61.9765 70.7675 62.2311 71.2528 62.0698 71.704C61.9049 72.1639 61.3683 72.4135 60.8712 72.261C60.6823 72.2031 60.5214 72.102 60.4358 72.0451C60.3273 71.9728 60.214 71.8861 60.106 71.7965C59.8913 71.6182 59.6532 71.3918 59.4521 71.1555C59.2401 70.9065 59.0243 70.7227 58.8296 70.6155C58.4093 70.3842 57.907 70.1376 57.6162 69.9882C57.532 69.9449 57.0739 69.6987 57.0826 69.1586C57.0883 68.8153 57.2892 68.5938 57.4179 68.4849C57.3761 68.1814 57.467 67.8391 57.8199 67.5867L58.046 67.4462C58.2718 67.3251 58.4946 67.2556 58.6666 67.2096C58.7798 67.1794 58.8974 67.1535 58.9797 67.1342C59.0718 67.1126 59.136 67.0957 59.189 67.0794C59.2744 67.053 59.3861 67.0192 59.7855 66.7023C59.7694 66.6773 59.7521 66.6536 59.7392 66.6286C59.613 66.3826 59.6505 66.1602 59.6577 66.1143C59.6703 66.035 59.6923 65.9729 59.704 65.9412C59.7288 65.8745 59.7586 65.8164 59.7763 65.7835C59.8462 65.6538 59.9644 65.4764 60.0764 65.3139C60.316 64.9663 60.6503 64.5092 60.8841 64.1911C60.9603 64.0875 61.0444 63.9576 61.1509 63.7969C61.2 63.7229 61.2535 63.641 61.3065 63.5672C61.3551 63.4996 61.4242 63.4076 61.5029 63.3255C61.5567 63.2694 61.7191 63.1037 61.9809 63.0187C62.1372 62.968 62.3764 62.9318 62.6404 63.0187C62.9051 63.106 63.0669 63.2751 63.1536 63.4078C63.216 63.5036 63.2506 63.6007 63.2721 63.6838C63.3298 63.5179 63.4124 63.3629 63.5037 63.2278C63.6014 63.0314 63.6931 62.8323 63.7853 62.6245C63.8832 62.4038 63.9965 62.1479 64.1206 61.9354C64.1535 61.879 64.1805 61.8162 64.2114 61.7537C64.0741 61.6955 63.9726 61.6193 63.9076 61.5549C63.7479 61.3965 63.6947 61.2246 63.6834 61.1898C63.6625 61.1256 63.6505 61.0677 63.6445 61.0321C63.6091 60.8203 63.6014 60.3742 63.5945 59.6437C63.5828 58.4014 63.5816 56.1578 63.5889 54.486C63.5534 54.3825 63.5159 54.2688 63.4648 54.1449C63.3468 53.8588 62.8333 52.6785 62.2143 50.7133C62.1608 50.5433 62.1085 50.3764 62.0587 50.2111C62.0083 50.2594 61.9509 50.307 61.8808 50.3482C61.5673 50.5322 61.2588 50.4894 61.1491 50.4682C61.0187 50.4429 60.9173 50.3995 60.8638 50.3739C60.6706 50.2815 60.4842 50.1309 60.3673 50.0311C60.1035 49.8058 59.7604 49.4599 59.5595 49.1672C59.2101 48.6579 58.9883 48.1427 58.8037 47.7633C58.6256 47.3973 58.3498 46.9422 58.1479 46.0098C58.0776 45.6855 58.0467 45.2942 58.0219 44.8888C57.995 44.4484 57.9777 44.0161 57.9404 43.4541C57.8502 42.0961 58.0486 40.6068 58.3276 39.4723C58.444 38.9986 58.6061 38.5386 58.7425 38.137C58.8843 37.7199 59.0015 37.3563 59.0704 37.0023C59.1659 36.5122 59.2036 36.0839 59.2205 35.7527C59.229 35.5863 59.2323 35.4456 59.2353 35.3259C59.2376 35.236 59.2408 35.0856 59.2576 34.9745C59.309 34.6343 59.4492 34.3153 59.5892 34.0506C59.7314 33.7817 59.9058 33.5098 60.0597 33.2707C60.4023 32.7387 60.63 32.3742 60.7007 32.0829C60.8904 31.302 61.206 30.833 61.4733 30.4202C61.5568 30.2913 61.6181 30.1558 61.7252 29.9283C61.825 29.7164 61.9566 29.4473 62.1569 29.1638C62.3753 28.8546 62.6198 28.6192 62.8201 28.437C63.0445 28.2329 63.1599 28.1372 63.2684 28.0171C63.2699 28.0153 63.2726 28.0127 63.2758 28.0085C63.2809 28.0021 63.286 27.9953 63.2944 27.9845C63.3018 27.9749 63.313 27.9608 63.324 27.9468C63.3626 27.8977 63.4526 27.7828 63.5908 27.6794L63.6908 27.6125C63.8098 27.5395 63.9891 27.4556 64.2207 27.436ZM60.484 45.1905C60.4758 45.2004 60.461 45.2145 60.4432 45.2333C60.4588 45.2361 60.4746 45.2369 60.4895 45.2402C60.488 45.2226 60.4873 45.2048 60.4858 45.1871L60.484 45.1905ZM64.0539 29.7792C63.9319 29.8953 63.8301 30.0026 63.7445 30.1237C63.6365 30.2766 63.5577 30.432 63.4648 30.6293C63.3791 30.8113 63.2633 31.0723 63.1017 31.3218C62.8397 31.7265 62.6687 31.9857 62.5515 32.4685C62.3995 33.094 61.9747 33.7269 61.69 34.1689C61.5302 34.417 61.396 34.6283 61.2936 34.822C61.1888 35.02 61.147 35.146 61.1361 35.2179C61.1385 35.2019 61.1361 35.2209 61.1324 35.3671C61.1294 35.4837 61.1255 35.646 61.1157 35.8367C61.0961 36.2201 61.052 36.7285 60.9379 37.3143C60.8451 37.7902 60.6932 38.2509 60.5525 38.665C60.4065 39.0945 60.2718 39.4737 60.1764 39.8614C60.1116 40.1253 60.0517 40.4101 60.0005 40.7064C60.0159 40.6643 60.0315 40.6224 60.0468 40.5813C60.1478 40.3096 60.2476 40.0554 60.3376 39.8477C60.4131 39.6735 60.5209 39.439 60.6396 39.2803L60.71 39.1946C60.7395 39.1621 60.7741 39.1265 60.8156 39.0918C60.8929 39.027 61.0456 38.9184 61.2713 38.8707C61.2803 38.8688 61.2901 38.8689 61.2991 38.8672C61.6541 38.2277 61.9884 37.6011 62.2254 37.0537C62.6431 36.0893 62.9002 35.3364 63.0517 34.8477C63.0546 34.8383 63.0563 34.8278 63.0591 34.8186C63.1921 34.0649 63.3304 33.3269 63.4555 32.7857C63.6074 32.1288 63.7318 31.5498 63.8872 31.1401C63.9586 30.9518 64.0603 30.7416 64.2114 30.5488C64.1842 30.4179 64.1566 30.282 64.1336 30.158C64.1094 30.0275 64.0802 29.9018 64.0539 29.7792Z" fill="#FF0000"/>
<path d="M38.4338 8.59163C38.7384 8.57834 38.9529 8.69938 39.0377 8.75447C39.134 8.81698 39.1989 8.88282 39.2323 8.91902C39.3007 8.99331 39.3503 9.06866 39.3768 9.111C39.4803 9.27707 39.5947 9.53107 39.688 9.74178C39.7855 9.9622 39.9041 10.2392 39.99 10.436C40.0361 10.5416 40.0769 10.6323 40.1104 10.7034C40.1401 10.7664 40.1554 10.795 40.1586 10.8011C40.3817 11.1559 40.5171 11.4115 40.8737 11.8244C41.2268 12.2333 41.4825 12.5045 41.7073 12.7534C41.9229 12.992 42.1257 13.2257 42.2909 13.5025L42.2927 13.5059C42.3278 13.4908 42.3642 13.475 42.4039 13.4631C42.8111 13.3408 43.126 13.4879 43.3024 13.6139L43.4321 13.7219L43.6637 13.9704C43.9859 14.3274 44.5578 15.0031 45.1828 15.9193C45.7022 16.6809 46.1753 17.4131 46.3759 18.2025C46.3951 18.2782 46.4347 18.4401 46.4315 18.6122C46.4302 18.6756 46.4237 18.787 46.3796 18.9156L46.4592 18.9601L46.6723 19.099C47.6914 19.8043 48.0343 20.7012 48.3359 21.6667C48.3724 21.7836 48.3976 21.8983 48.4174 22.0095C48.5959 22.1513 48.7679 22.3071 48.9288 22.4603C49.3056 22.8191 49.633 23.1583 49.8754 23.5556C50.1287 23.9709 50.2606 24.399 50.3386 24.9063C50.4413 25.5743 50.4813 26.1188 50.4905 26.5741C50.6942 27.1184 50.7516 27.5191 50.7072 27.7945C50.7028 27.8221 50.6898 27.8568 50.6795 27.8974C50.6795 27.9373 50.6787 27.9767 50.6776 28.0156C50.6868 28.0219 50.6961 28.0276 50.7035 28.0328C50.8636 28.1453 51.1083 28.3616 51.2 28.4356C51.5652 28.7303 51.7875 29.0859 51.954 29.4503C52.1126 29.7975 52.2491 30.2194 52.3968 30.6605C52.5697 31.1765 52.7196 31.8223 52.8377 32.3951C52.9022 32.5149 52.9718 32.6364 53.0378 32.7602C53.0663 32.8136 53.0974 32.8667 53.1267 32.9214C53.2566 32.9892 53.3655 33.0507 53.4602 33.0945C53.889 33.2926 54.3273 33.6389 54.6922 34.0115C54.7795 34.1007 54.8652 34.1958 54.9497 34.2943C55.4566 34.1859 55.9166 34.1921 56.291 34.2189C56.4236 34.2284 56.5517 34.2412 56.6596 34.2515C56.7724 34.2622 56.8635 34.2703 56.9468 34.2755C57.1194 34.2863 57.1828 34.2775 57.1987 34.2738C57.2847 34.2528 57.4053 34.2004 57.61 34.0887C57.6787 34.0511 57.7705 33.9975 57.8749 33.9412C57.8546 33.4886 58.0231 33.0717 58.1825 32.7585C58.3629 32.4041 58.6096 32.0396 58.8124 31.7352L58.9309 31.5758C59.062 31.4188 59.2301 31.2735 59.4459 31.1747C59.4746 31.1616 59.5057 31.1531 59.5349 31.1421C59.5675 30.6606 59.5969 29.9001 59.6164 28.6327C59.6253 28.052 59.6614 27.6294 59.6997 27.2649C59.7392 26.8906 59.7752 26.6338 59.7961 26.3084C59.846 25.5316 59.9274 24.5303 59.9721 23.7133C60.0055 23.1041 60.1377 22.6906 60.2815 22.3403L60.3352 22.2255C60.3597 22.1798 60.3929 22.1282 60.4334 22.0763C60.4958 21.9965 60.7136 21.7409 61.1244 21.6975C61.5874 21.6487 61.881 21.9035 61.9821 22.0129C62.0879 22.1275 62.1423 22.243 62.1656 22.2957C62.2192 22.4173 62.253 22.5637 62.2786 22.6934C62.3791 22.7605 62.4445 22.8222 62.4657 22.8443C62.5709 22.9537 62.6494 23.077 62.7065 23.1785C62.7546 23.2639 62.799 23.35 62.8436 23.4339C62.8742 23.4447 62.9016 23.4557 62.9251 23.4665C63.1186 23.5549 63.2293 23.6828 63.253 23.7099C63.2953 23.7579 63.325 23.8023 63.342 23.8281C63.3769 23.8814 63.4058 23.9343 63.4253 23.9721C63.5011 24.1188 63.6013 24.3524 63.6958 24.5738C63.8018 24.8222 63.9107 25.0772 64.0107 25.3005C64.0273 25.3222 64.0448 25.3428 64.0608 25.364C64.1909 25.5369 64.3404 25.7463 64.4313 25.9347C64.4562 25.9864 64.4861 26.0548 64.5091 26.1336C64.5293 26.2029 64.5624 26.339 64.5443 26.5038C64.5355 26.5837 64.5069 26.6799 64.4591 26.7815C64.4749 26.8409 64.4982 26.9391 64.498 27.0455C64.4979 27.0679 64.4973 27.1016 64.4924 27.1432C64.5037 27.1563 64.5149 27.1694 64.5258 27.1826C64.8203 27.4417 65.0419 27.8213 65.189 28.1134C65.3597 28.4524 65.5089 28.8292 65.6132 29.1572C65.6654 29.3214 65.7104 29.484 65.7411 29.632C65.7671 29.7578 65.7989 29.9495 65.7818 30.136C65.7493 30.4903 65.6038 30.7705 65.4391 30.9862C65.4314 31.0486 65.4284 31.1016 65.4224 31.1404C65.4099 31.2225 65.3693 31.4725 65.1594 31.6906C65.155 31.6951 65.149 31.6982 65.1445 31.7026C65.1463 31.759 65.1519 31.8117 65.1519 31.8586C65.152 32.0981 65.1117 32.3903 64.9296 32.654C64.7202 32.957 64.4227 33.0841 64.2071 33.1356C64.1299 33.1541 64.0536 33.1635 63.9792 33.1699C64.0364 33.4729 64.0753 33.7854 64.1034 34.0852C64.1998 35.1151 63.9883 35.9576 63.6939 36.5827C63.4177 37.169 63.0318 37.6332 62.6935 37.8476C62.3838 38.0438 62.06 38.0961 61.7728 38.0808C61.9356 38.2869 62.0673 38.4848 62.1693 38.6516C62.5044 39.2 62.4414 39.8071 62.3397 40.1737C62.2509 40.4939 62.0792 40.7505 61.8562 40.9587C62.0042 41.1395 62.1334 41.354 62.2267 41.6084C62.6697 42.8166 62.1907 44.0459 61.6024 44.8874C61.4972 45.0377 61.3751 45.1747 61.243 45.3005C61.1984 45.7693 61.0621 46.1427 60.9373 46.3855C60.6831 46.88 60.2922 47.234 59.9813 47.474C59.7496 47.6528 59.4942 47.758 59.2366 47.8219C59.2181 47.8637 59.1998 47.9044 59.181 47.9436C59.2512 48.0248 59.2972 48.0991 59.32 48.1476C59.3762 48.2672 59.3941 48.3848 59.4015 48.4681C59.9909 48.4265 60.6983 48.4254 61.4782 48.4304C61.9031 48.4332 62.2364 48.5348 62.5027 48.6824C62.6243 48.7498 62.7178 48.82 62.7695 48.8589C62.8079 48.8879 62.818 48.8958 62.814 48.8932L62.9677 48.9978C63.1417 49.1368 63.2567 49.298 63.3327 49.4297C63.4362 49.6094 63.5028 49.7975 63.5476 49.9542C63.6323 50.2512 63.6829 50.6037 63.7106 50.7564C63.7402 50.9192 63.7764 51.0885 63.8181 51.2758C63.8588 51.4586 63.9047 51.6606 63.944 51.8654C64.0427 52.3787 64.1522 52.6467 64.359 53.1801C64.5324 53.6273 64.6363 54.0644 64.6888 54.4983C64.7213 54.7675 64.77 56.2547 64.7555 58.283C64.7468 59.487 64.6145 60.37 64.5739 60.8044C64.5461 61.1017 64.4944 61.436 64.4424 61.7609C64.3888 62.0956 64.3332 62.4283 64.2905 62.755C64.1737 63.6481 63.9349 64.1284 63.8199 64.4365C63.6276 64.9516 63.29 65.4056 62.8918 65.9655C62.5832 66.3994 62.2996 66.7355 62.0192 67.0642C61.8009 67.3202 61.5525 67.4943 61.356 67.6213C61.1264 67.7697 61.0251 67.8215 60.8743 67.9316C60.6846 68.07 60.5538 68.2624 60.2796 68.6429C60.2432 68.6934 60.2202 68.7328 60.2037 68.768C60.2244 68.9332 60.2542 69.0504 60.287 69.1314C60.307 69.1807 60.3289 69.2227 60.3519 69.2617L60.426 69.3731L60.4426 69.3971L60.4593 69.4228C60.5705 69.6021 60.625 69.7576 60.6557 69.8428C60.821 70.3023 60.552 70.7984 60.0554 70.9518C59.5586 71.105 59.0208 70.8577 58.855 70.3981C58.8388 70.3533 58.8335 70.3356 58.8272 70.321C58.8228 70.3109 58.8189 70.3045 58.8142 70.297C58.6051 69.9971 58.3471 69.5304 58.2936 68.756L58.2862 68.6463L58.3084 68.5384C58.383 68.1721 58.5367 67.8976 58.7012 67.6693C58.899 67.3948 59.2159 66.9066 59.6997 66.5534C59.9024 66.4056 60.1618 66.2533 60.2703 66.1832C60.4123 66.0915 60.4823 66.0331 60.5297 65.9775C60.8075 65.6517 61.0461 65.3675 61.306 65.0022C61.7593 64.3647 61.9303 64.1205 62.0266 63.8623C62.1766 63.4605 62.3221 63.203 62.4082 62.5442C62.4548 62.1877 62.5143 61.8251 62.5657 61.5037C62.6187 61.1731 62.6622 60.8885 62.6843 60.6518C62.733 60.1304 62.8505 59.3817 62.8584 58.271C62.8657 57.2565 62.8569 56.3945 62.8436 55.7633C62.8369 55.4479 62.829 55.1907 62.8214 55.0022C62.8176 54.9081 62.8136 54.8321 62.8103 54.776C62.8071 54.7217 62.8051 54.6977 62.8047 54.6937C62.7679 54.39 62.6948 54.0869 62.5731 53.7732C62.3684 53.2452 62.2067 52.8488 62.0766 52.1723C62.0427 51.9959 62.0021 51.8202 61.9599 51.6306C61.9187 51.4456 61.8757 51.2468 61.8395 51.0478C61.829 50.99 61.8194 50.9278 61.8099 50.8713C61.8001 50.8131 61.7904 50.7575 61.7802 50.7016C61.7595 50.5875 61.7377 50.4865 61.7135 50.4016C61.699 50.3509 61.6827 50.316 61.6728 50.2919C61.6642 50.2859 61.6555 50.2814 61.6487 50.2765C61.6189 50.255 61.5831 50.2291 61.5709 50.2199C61.5528 50.2063 61.5428 50.1991 61.5357 50.1942C61.534 50.1931 61.5331 50.1915 61.532 50.1908C61.5239 50.1892 61.5029 50.1859 61.4653 50.1856C60.4691 50.1792 59.7591 50.1825 59.257 50.2422C58.9468 50.2791 58.82 50.3277 58.7809 50.345C58.6017 50.6095 58.4206 50.8677 58.0565 51.5895C58.0277 51.6553 58.0044 51.7184 57.9787 51.7746C57.9447 51.849 57.8825 51.974 57.8064 52.0728C57.7949 52.0878 57.7578 52.1345 57.7026 52.186C57.6782 52.2088 57.6135 52.2669 57.5155 52.3214C57.4809 52.3406 57.3562 52.4093 57.1747 52.4362C57.1426 52.5154 57.1154 52.588 57.0913 52.6471C56.857 53.2226 56.7765 53.6815 56.5855 54.296C56.47 54.6677 56.3804 55.0599 56.291 55.4376C56.2111 55.7747 56.1149 56.1795 55.9909 56.4592C55.8652 56.7427 55.8074 56.958 55.7667 57.1483C55.7349 57.297 55.687 57.6018 55.6166 57.8339C55.5466 58.0648 55.4467 58.2806 55.3795 58.4321C55.3062 58.5974 55.2501 58.7304 55.2091 58.8778C55.1679 59.0259 55.1424 59.1711 55.0979 59.3886C55.057 59.5886 55.0014 59.8324 54.9071 60.0879C54.8694 60.1898 54.8212 60.291 54.7718 60.3879C54.8616 60.559 54.8747 60.7186 54.8756 60.777C54.8776 60.9172 54.8442 61.0277 54.8311 61.0684C54.7793 61.2293 54.6778 61.3955 54.6273 61.4763C54.5086 61.6666 54.3071 61.952 54.1716 62.0917C54.0121 62.256 53.7989 62.376 53.5621 62.4242C53.435 62.4501 53.0915 62.4855 52.7803 62.3025C52.5182 62.2666 51.9481 62.1095 51.791 61.5037C51.6492 60.9569 51.558 60.2868 51.7725 59.3817C51.9015 58.8376 52.0065 58.6122 52.0671 58.1099C52.1271 57.6114 52.1926 57.1576 52.2894 56.4352C52.3564 55.9351 52.4236 55.2148 52.5654 54.5686C52.7999 53.5 52.969 52.8854 53.0434 52.4225C53.0695 52.2598 53.0894 52.0531 53.123 51.7712C53.154 51.5117 53.195 51.2053 53.2601 50.9227C53.3286 50.6254 53.4542 49.9966 53.5195 49.3337C53.5889 48.6283 53.5716 48.0438 53.4639 47.7448C53.3911 47.5424 53.372 47.3154 53.362 47.1723C53.3511 47.0161 53.3445 46.8068 53.3361 46.6426C53.3169 46.2697 53.2827 45.9214 53.1897 45.6313C53.1744 45.5839 53.121 45.4728 53.0563 45.3108C52.9033 45.0844 52.7836 44.8163 52.7562 44.5189C52.7414 44.3576 52.7683 44.2177 52.8007 44.1075C52.7998 44.0709 52.7965 44.0336 52.797 43.9961C52.7977 43.939 52.8059 43.8746 52.8211 43.8058C52.818 43.8028 52.8147 43.8002 52.8118 43.7972C52.0862 43.0614 51.5296 42.4415 51.3334 41.6426C51.2466 41.2887 51.2489 40.9622 51.3093 40.669C51.1161 40.3059 51.1165 39.9217 51.1259 39.7109C51.134 39.531 51.1573 39.3556 51.1778 39.2172C51.1974 39.0849 51.2094 38.9977 51.2186 38.9224C51.1897 38.8578 51.1645 38.7968 51.1463 38.739C51.1208 38.6577 51.1034 38.5835 51.0926 38.535C51.0797 38.4768 51.0767 38.4609 51.0722 38.4441C51.0626 38.4086 51.0571 38.3669 51.05 38.3224C51.0126 38.2951 50.9753 38.2714 50.9425 38.247C50.4783 37.902 50.2692 37.3792 50.1366 37.0283C50.1232 36.9928 50.1105 36.9567 50.0977 36.922C49.8529 36.5287 49.7078 36.0838 49.5975 35.6502C49.5956 35.6424 49.594 35.6341 49.592 35.6262C49.3387 35.0535 48.9703 34.1362 48.7176 33.4819C48.5207 33.3505 48.3693 33.2046 48.2544 33.0756C48.167 32.9775 48.0839 32.8724 48.0173 32.7894C47.9457 32.7002 47.8829 32.6234 47.8153 32.5477C47.4652 32.1554 47.3608 31.718 47.3466 31.3495C47.0833 31.4087 46.8006 31.4187 46.5241 31.3427C45.845 31.1559 45.611 30.564 45.5366 30.3708C45.4864 30.2403 45.443 30.0966 45.4162 30.0126C45.3825 29.907 45.3657 29.864 45.3569 29.8463C45.2753 29.6819 45.2156 29.5084 45.1717 29.3286C45.138 29.3595 45.1071 29.3921 45.0735 29.4212C44.3447 30.0529 43.3929 30.1358 42.9375 30.1754C42.8992 30.1787 42.8554 30.1782 42.8078 30.1805C42.7777 30.3983 42.7328 30.6353 42.6855 30.8645C42.8779 31.0011 43.0354 31.1605 43.0801 31.2587C43.102 31.3398 43.1196 31.4665 43.1209 31.5107C43.1204 31.5376 43.117 31.582 43.1153 31.5998C43.1116 31.6336 43.1062 31.6597 43.1042 31.6701C43.0996 31.6933 43.0964 31.7125 43.0949 31.7181L43.0838 31.7558C43.0812 31.7645 43.0789 31.7736 43.0764 31.7815C43.0734 31.791 43.0678 31.8023 43.0634 31.8158C43.0607 31.8325 43.0585 31.8616 43.0523 31.9066C43.0393 32.0011 43.018 32.1688 42.9615 32.3523C42.8275 32.7878 42.6785 33.4097 42.2761 34.4298C42.1564 34.7332 42.0419 34.9981 41.9333 35.2817C41.9596 35.3381 41.9773 35.3879 41.9871 35.4256C42.0095 35.5121 42.0124 35.584 42.013 35.6245C42.0141 35.7016 42.005 35.7647 42.0019 35.7839C41.9978 35.809 41.9927 35.8327 41.9908 35.8422C41.9879 35.8562 41.9868 35.8617 41.9852 35.8696C41.981 35.8913 41.9815 35.896 41.9815 35.897C41.9872 36.1586 42.0382 36.3233 42.1056 36.6666C42.1716 37.0027 42.2237 37.4077 42.1112 37.9265C42.004 38.4204 41.8325 38.882 41.7147 39.2995C41.3645 40.5417 41.1585 41.3754 40.9052 41.9357C40.8766 41.9991 40.8502 42.0751 40.8088 42.1963C40.7712 42.3065 40.7205 42.4576 40.6551 42.6111C40.5237 42.9192 40.3161 43.2769 39.9325 43.595C39.8953 44.574 39.8582 45.1053 39.7269 45.5765C39.6913 45.704 39.6793 45.8692 39.6454 46.1798C39.6181 46.4294 39.5735 46.8141 39.4194 47.1551C39.3232 47.368 39.0891 48.0851 38.469 48.6001C38.2066 48.818 37.8538 49.0512 37.5835 49.2395C37.311 49.4293 37.0677 49.6124 36.8628 49.8034C36.7791 50.1346 36.6242 50.5129 36.3367 50.9604C35.9512 51.5602 35.6219 51.9491 35.3622 52.2443C35.3148 52.4067 35.2616 52.5635 35.1917 52.7053C34.1894 54.7381 33.488 55.6861 33.1632 56.1438C33.0005 56.3727 32.567 56.8783 32.1905 57.3402C31.7741 57.8512 31.3696 58.3756 31.1438 58.7629C30.9548 59.0871 30.7381 59.4927 30.5566 59.8754C30.3671 60.2746 30.2442 60.5898 30.2046 60.7564C30.1382 61.0359 30.0759 61.3222 30.0212 61.5603C29.9975 61.6631 29.971 61.7779 29.947 61.8568C29.941 61.8768 29.9292 61.9154 29.9118 61.958C29.9038 61.9776 29.8855 62.0208 29.8563 62.0711C29.8415 62.0965 29.8152 62.1402 29.7748 62.1894C29.7413 62.23 29.6545 62.3287 29.508 62.4105C29.4275 62.4554 29.3157 62.4979 29.1838 62.5202C29.1317 62.8078 29.0913 63.0692 29.0467 63.295C28.9961 63.5507 28.9485 63.7701 28.9077 63.9395C28.8875 64.0234 28.8674 64.1031 28.8466 64.1726C28.8377 64.2022 28.8189 64.2542 28.7947 64.3148C28.7867 64.3352 28.779 64.3571 28.7781 64.3594C28.7783 64.3588 28.7786 64.3557 28.7799 64.3526C28.781 64.3499 28.7839 64.3429 28.7873 64.3337V64.3286C28.7729 64.3636 28.7592 64.4018 28.7392 64.4383C28.7381 64.4401 28.7337 64.449 28.728 64.4588C28.7258 64.4627 28.7183 64.4765 28.7077 64.4931C28.7027 64.5008 28.6907 64.5189 28.6743 64.5411C28.666 64.5523 28.652 64.5726 28.6317 64.596C28.6169 64.613 28.5713 64.6637 28.502 64.7177C28.4676 64.7445 28.3987 64.794 28.3001 64.8376C28.2894 64.8424 28.2747 64.8426 28.2612 64.8479C28.2395 65.0042 28.2077 65.1773 28.1797 65.3159C28.1631 65.3977 28.1497 65.477 28.1352 65.5524C28.1515 65.6271 28.1654 65.6953 28.1834 65.7615C28.2074 65.8498 28.2559 66.0142 28.276 66.1746C28.2734 66.1541 28.27 66.14 28.2816 66.1849C28.2822 66.1873 28.2985 66.2466 28.3075 66.3083C28.3102 66.3271 28.3267 66.4374 28.3038 66.5723C28.2922 66.6401 28.2577 66.7958 28.1334 66.9545C28.0651 67.0415 27.9753 67.1138 27.874 67.1739C27.8804 67.1998 27.8906 67.225 27.8962 67.2511C27.9307 67.4112 27.9445 67.5739 27.9537 67.6882C27.9552 67.7077 27.956 67.7259 27.9574 67.743C28.0364 67.8342 28.0965 67.923 28.1334 68.0001C28.157 68.0496 28.1914 68.132 28.2112 68.2332C28.2187 68.272 28.242 68.3932 28.2149 68.5435C28.201 68.6201 28.1617 68.7737 28.0352 68.9292C27.8858 69.1126 27.6494 69.2505 27.3645 69.2754C27.1553 69.2935 26.9213 69.2616 26.7032 69.1451C26.522 69.0484 26.4027 68.9188 26.3234 68.8057C26.1549 68.7077 26.0015 68.6076 25.8713 68.5144C25.6778 68.3758 25.5342 68.2675 25.3563 68.151C25.0149 67.9274 24.6726 67.7155 24.317 67.4962C24.0036 67.3029 23.392 66.9435 23.0535 66.3683C22.9841 66.2503 22.8925 66.125 22.7794 65.9706C22.7285 65.9013 22.6684 65.8181 22.6163 65.7393C22.5717 65.6718 22.4929 65.5498 22.4422 65.4084C22.2773 64.9484 22.547 64.452 23.0443 64.2994C23.5412 64.147 24.0777 64.3953 24.2429 64.8548C24.2214 64.7952 24.2014 64.775 24.2336 64.8239C24.2588 64.862 24.2949 64.912 24.3485 64.9851C24.4448 65.1163 24.5977 65.319 24.7209 65.5284C24.7966 65.6572 24.975 65.7926 25.3693 66.0358C25.4658 66.0954 25.562 66.1584 25.6601 66.2192C25.6581 66.204 25.6565 66.1884 25.6546 66.1729C25.6101 65.8079 25.577 65.401 25.549 65.0519C25.5197 64.6867 25.4979 64.407 25.4786 64.2531C25.4106 63.7123 25.3485 63.0867 25.26 62.7242C25.2371 62.6304 25.2234 62.5233 25.2081 62.4122C25.2059 62.4118 25.2029 62.4126 25.2007 62.4122C24.9071 62.3536 24.7345 62.1879 24.6634 62.1071C24.5348 61.9607 24.493 61.8116 24.4874 61.7934C24.4626 61.7139 24.4541 61.6448 24.4522 61.6289C24.4461 61.5775 24.4426 61.5231 24.4411 61.4832C24.4252 61.0513 24.3825 59.6555 24.317 59.1914C24.1773 58.2028 23.9705 57.2112 24.091 55.9244L24.1077 55.8027C24.1199 55.7393 24.1409 55.6582 24.1781 55.5781C24.2004 55.53 24.258 55.4181 24.3744 55.3073C24.4156 55.2682 24.4708 55.226 24.5375 55.1856C24.533 54.7033 24.5394 54.2062 24.5912 53.6892C24.6131 53.4704 24.6424 53.2458 24.669 53.0293C24.6185 52.9006 24.5725 52.7654 24.5375 52.6231C24.4685 52.3424 24.3305 51.8065 24.2707 51.3666C24.2442 51.1719 24.2141 50.8721 24.2744 50.6056C24.3008 50.4888 24.3866 50.1745 24.7135 49.9577C25.1236 49.6857 25.5591 49.7775 25.7861 49.8737C26.1739 50.0383 26.4038 50.3329 26.5346 50.5867C26.6063 50.5106 26.6805 50.4429 26.7587 50.3879C26.8644 50.2517 26.9065 50.2034 26.9403 50.1496C27.0356 49.998 27.1551 49.8536 27.2923 49.7314C27.4122 49.6246 27.6216 49.4668 27.9092 49.3989L28.1259 49.368C28.2135 49.3635 28.3153 49.3683 28.4242 49.392C28.433 49.3939 28.4415 49.3967 28.4501 49.3989C28.4673 49.3814 28.4841 49.3632 28.502 49.3457C28.81 49.0464 29.2027 48.7449 29.5858 48.475C30.2074 48.0371 31.83 46.8821 32.8056 46.2312C32.8071 46.2288 32.8097 46.2269 32.8112 46.2244C32.8879 45.9105 32.9688 45.5668 33.0335 45.2662L33.1187 44.9971C33.1482 44.9235 33.1588 44.902 33.1798 44.8463C33.2098 44.7667 33.2471 44.6498 33.2762 44.452C33.3373 44.036 33.3619 43.2466 33.1539 41.7095C33.1186 41.4489 33.0833 41.229 33.052 41.0358C33.0215 40.8479 32.9924 40.6689 32.9705 40.5113C32.925 40.1848 32.8995 39.8656 32.9705 39.5C33.0751 38.9615 33.2147 38.5343 33.341 38.1716C33.2847 38.0739 33.2096 37.9532 33.1094 37.8014C33.005 37.6432 32.8576 37.4209 32.7445 37.0986C32.6342 36.7842 32.5692 36.4138 32.5444 35.9296C32.5162 35.38 32.4118 34.5687 32.3962 33.2145C32.3922 32.8701 32.4342 32.5831 32.4758 32.3369C32.5185 32.0843 32.5553 31.8931 32.574 31.6529C32.616 31.1146 32.706 30.6606 32.75 28.3962C32.7582 27.9744 32.7938 27.6423 32.8334 27.3574C32.8753 27.0561 32.9097 26.875 32.9297 26.6547C32.9387 26.5563 32.9579 26.4604 32.9723 26.3684C32.9074 26.335 32.8496 26.2994 32.8019 26.2604C32.5994 26.0949 32.5321 25.9006 32.5147 25.8473C32.4888 25.7678 32.48 25.6995 32.4758 25.6588C32.4608 25.5095 32.4822 25.3659 32.5073 25.2628C32.5958 24.9007 32.6721 24.3005 32.7241 23.8041C32.77 23.3666 33.0078 22.4285 33.2039 21.7164C33.2192 21.6608 33.2369 21.6059 33.2521 21.5518C33.313 21.168 33.3758 20.7818 33.4373 20.4103C33.6833 18.9247 33.9054 18.3993 33.9931 18.0242C34.0852 17.6304 34.1481 16.909 34.2284 16.233C34.2667 15.9105 34.2904 15.5545 34.3155 15.1909C34.3396 14.8399 34.3654 14.4687 34.4062 14.1624C34.4648 13.7238 34.6022 13.2775 34.7508 12.8374C34.8601 12.5136 34.9691 12.2662 35.0565 12.0678C35.1462 11.8642 35.2019 11.7377 35.2436 11.5981C35.283 11.4663 35.3108 11.3114 35.3492 11.1062C35.3826 10.9277 35.4283 10.68 35.503 10.4617L35.5326 10.3863C35.5396 10.3703 35.5521 10.3428 35.5697 10.3109C35.5822 10.2881 35.6206 10.2176 35.6901 10.1412C35.7189 10.1095 35.7744 10.0556 35.855 10.0006C35.8422 9.9342 35.8335 9.88445 35.8216 9.82406C35.8121 9.77515 35.798 9.70338 35.7901 9.63894C35.7843 9.59083 35.7723 9.47325 35.8013 9.33383C35.8264 9.21303 35.9427 8.81712 36.42 8.65677C36.8284 8.51968 37.1569 8.68479 37.2203 8.71676C37.3265 8.77027 37.4033 8.83078 37.4371 8.85903C37.503 8.91414 37.5721 8.98953 37.6335 9.05615C37.6508 9.02672 37.6711 8.9959 37.6946 8.9653C37.8244 8.79656 38.0729 8.60741 38.4338 8.59163ZM36.3367 40.3091C36.2818 40.3687 36.2376 40.422 36.2014 40.5028C36.2381 40.4555 36.2749 40.4065 36.3126 40.3588C36.3423 40.321 36.3723 40.2841 36.4015 40.2474C36.3804 40.2669 36.3577 40.2862 36.3367 40.3091ZM38.8358 37.7705C38.8376 37.7751 38.8396 37.7796 38.8414 37.7842C38.846 37.7746 38.8498 37.7647 38.8543 37.7551C38.8479 37.76 38.8423 37.7657 38.8358 37.7705ZM60.1814 34.6526C60.099 34.7284 60.0117 34.7983 59.9221 34.8651C59.94 34.9627 59.9616 35.0587 59.9813 35.1531C60.0225 34.9743 60.0901 34.8034 60.1814 34.6577V34.6526ZM43.4414 19.8515C43.4632 20.0164 43.4758 20.1775 43.4803 20.328C43.4806 20.3394 43.4781 20.3508 43.4784 20.3623C43.49 20.3682 43.5021 20.3733 43.5136 20.3794C43.5048 20.318 43.4987 20.2492 43.4858 20.172C43.4705 20.0798 43.4568 19.9667 43.4414 19.8515ZM43.421 19.7092C43.4202 19.7006 43.418 19.6921 43.4173 19.6835C43.4174 19.6851 43.4165 19.6837 43.4154 19.6749L43.4136 19.6732C43.4124 19.6712 43.4129 19.6684 43.4117 19.6663C43.4144 19.6807 43.4185 19.6948 43.421 19.7092Z" fill="#FF0000"/>
<path d="M33.1743 35.6922C33.34 35.2328 33.8762 34.984 34.3729 35.1368C34.8699 35.2901 35.1388 35.7878 34.9731 36.2476C34.9552 36.2974 34.9452 36.3287 34.9342 36.3641C34.9327 36.3692 34.9309 36.3715 34.9305 36.3727C34.9305 36.373 34.9273 36.3827 34.925 36.4121L34.9268 36.4138C34.9128 36.7513 34.8886 37.0058 34.8675 37.2229C34.8462 37.4422 34.8304 37.6032 34.8231 37.7885C34.7964 38.4636 34.7682 38.8028 34.6878 39.2267C34.6204 39.5821 34.5453 39.8439 34.4766 40.106C34.463 40.1581 34.4515 40.2495 34.4303 40.4728C34.4121 40.6651 34.387 40.925 34.3284 41.1979C34.3115 41.2767 34.3005 41.3605 34.2858 41.4875C34.2717 41.6098 34.2548 41.7746 34.2265 41.9692C34.2016 42.1404 34.1684 42.3026 34.145 42.4251C34.1201 42.5556 34.1026 42.6578 34.0932 42.7594C34.069 43.0177 34.0475 43.3639 33.9598 43.8033C33.9168 44.0187 33.8697 44.2119 33.8282 44.3826C33.7859 44.5571 33.7495 44.7091 33.7189 44.8694C33.6489 45.2366 33.5889 45.6537 33.4447 46.1858C33.325 46.6277 33.1469 47.1117 32.9668 47.4011C32.8657 47.5634 32.7517 47.7031 32.6574 47.8125C32.5482 47.9393 32.4844 48.0058 32.398 48.1108C32.2753 48.2599 32.1078 48.4134 32.0423 48.4776C31.9557 48.5625 31.8751 48.6478 31.7904 48.769C31.7327 48.8514 31.5996 49.0578 31.4828 49.2026C31.3472 49.3708 31.1368 49.5895 30.8141 49.7357C30.5678 49.8472 30.3702 49.9197 30.2286 49.9723C30.0775 50.0284 30.0302 50.0489 29.9952 50.0682C29.7977 50.1777 29.1914 50.5609 28.4316 50.5602C28.0122 50.5598 27.5527 50.5687 27.0866 50.4711C27.0929 50.5105 27.1031 50.5501 27.107 50.591C27.1151 50.6766 27.1252 50.8561 27.0533 51.0521C26.9631 51.2978 26.7209 51.5993 26.2808 51.6743C26.1041 51.7043 25.957 51.6837 25.8806 51.6692C25.8006 51.654 25.7357 51.6334 25.7046 51.6229C25.6764 51.6135 25.6374 51.5994 25.6361 51.5989L25.6435 51.6006C25.4193 51.5357 25.2518 51.4112 25.1636 51.3401C25.0598 51.2563 24.96 51.1563 24.8654 51.047C24.8513 51.2963 24.8407 51.6128 24.8357 52.0154C24.8342 52.1406 24.8349 52.2748 24.8339 52.4165C24.9742 53.3653 25.1479 54.1662 25.2618 54.8111C25.4533 55.8953 25.3895 56.6798 25.3156 57.2965C25.2736 57.6464 25.1749 57.9231 25.0877 58.1382C24.9876 58.3849 24.9499 58.4539 24.9191 58.565C24.8127 58.9489 24.6991 59.3349 24.6042 59.662C24.5817 59.7392 24.5532 59.8185 24.5282 59.8985C24.5501 59.9905 24.5696 60.0711 24.5875 60.1334C24.6794 60.454 24.7116 60.7456 24.7413 60.9356C24.7723 61.1345 24.8156 61.3549 24.9395 61.6863C25.0049 61.8613 25.1017 62.0417 25.2544 62.3788C25.3851 62.6674 25.5402 63.0412 25.6101 63.4295C25.6873 63.8584 25.7626 64.2638 25.8398 64.8522C25.8389 64.8452 25.8412 64.8605 25.8528 64.9054C25.8614 64.9385 25.8739 64.9782 25.888 65.0236C26.0219 65.2154 26.1226 65.4027 26.1844 65.5876L26.2456 65.8447L26.2585 66.0247C26.2579 66.0608 26.2544 66.127 26.2363 66.2064C26.2233 66.2633 26.176 66.4574 25.9955 66.6349C25.8918 66.7365 25.7422 66.8335 25.549 66.8817C25.358 66.9292 25.1832 66.9149 25.0506 66.8817C24.8175 66.8231 24.6745 66.6986 24.6319 66.6606C24.5303 66.5697 24.4705 66.4754 24.4541 66.4498C24.3731 66.323 24.2975 66.1465 24.2485 66.0247C24.2251 65.9666 24.2028 65.8982 24.1762 65.8258C24.0522 65.682 23.8924 65.5406 23.6927 65.3819C23.5193 65.2442 23.3295 65.1052 23.1313 64.9568C22.9546 64.8244 22.7407 64.6626 22.5885 64.5163C22.2541 64.1947 21.9739 63.807 21.8012 63.3284C21.6978 63.0418 21.5982 62.7983 21.5011 62.5502C21.4136 62.3267 21.3148 62.064 21.2676 61.8217C21.2374 61.6663 21.227 61.5233 21.2213 61.4121C21.2144 61.2764 21.2146 61.2313 21.2083 61.1481C21.2044 61.096 21.1981 61.0688 21.1954 61.0573C21.0959 60.9272 20.9898 60.7828 20.8916 60.6476C20.7845 60.5001 20.6851 60.3631 20.5951 60.2448C20.5836 60.2296 20.5629 60.2057 20.5173 60.1574C20.4794 60.1171 20.409 60.0447 20.3432 59.9705C20.1943 59.8025 20.0301 59.5858 19.8819 59.2815C19.5918 58.6858 19.4128 58.2467 19.3483 57.7868C19.3348 57.6904 19.3178 57.6185 19.2798 57.4217C19.2456 57.2445 19.2075 57.0264 19.1798 56.736C19.1701 56.6353 19.1415 56.4887 19.0927 56.2595C19.0485 56.0523 18.9923 55.791 18.9574 55.531C18.928 55.3117 18.9091 55.0506 18.9371 54.7871C18.8348 54.6944 18.7443 54.5768 18.6814 54.4306C18.5597 54.1477 18.4871 53.8515 18.4424 53.5684C18.4157 53.3992 18.4001 53.2094 18.385 53.0439C18.3688 52.8672 18.3507 52.6837 18.3202 52.48C18.2393 51.9401 18.1435 51.2969 18.2794 50.3339C18.3026 50.1694 18.3364 49.9819 18.3683 49.7854C18.2639 49.7578 18.1512 49.7135 18.0423 49.6363C17.8009 49.4652 17.7043 49.2371 17.6717 49.0724C17.634 48.8804 17.6677 48.7184 17.6866 48.6421C17.6979 48.5965 17.7167 48.5539 17.731 48.5136C17.7088 48.468 17.6825 48.4243 17.6662 48.3816C17.6588 48.3621 17.6331 48.2952 17.618 48.2119C17.613 48.1842 17.5901 48.0607 17.6199 47.9068C17.6355 47.8261 17.6796 47.6655 17.8181 47.5074C17.9315 47.378 18.0819 47.2844 18.2498 47.2314L18.2479 47.2297C18.2449 47.2123 18.2418 47.1852 18.2405 47.1749C18.2398 47.1684 18.2372 47.1573 18.2368 47.1526C18.2355 47.1374 18.235 47.1246 18.2349 47.1234V47.0823C18.2349 47.0587 18.2365 47.0351 18.2368 47.012C18.236 47.0217 18.2353 47.0324 18.2349 47.0377V46.9846C18.2353 46.9565 18.2384 46.9182 18.2405 46.8749C18.2422 46.8239 18.2414 46.7741 18.2442 46.7258C18.085 46.266 18.1659 45.8503 18.2887 45.5431C18.3241 45.4543 18.3644 45.3715 18.4017 45.2997C18.4297 45.0339 18.4668 44.6826 18.5165 44.2386C18.5644 43.8113 18.5763 43.477 18.5795 43.2222C18.582 43.0205 18.5749 42.7321 18.5943 42.5657C18.6983 41.6739 18.8469 41.1336 19.2483 40.7111C19.2511 40.7082 19.2651 40.6927 19.2983 40.6168C19.3077 40.5953 19.3173 40.573 19.3298 40.5431C19.3414 40.5154 19.3563 40.48 19.3724 40.4437C19.4049 40.3707 19.4517 40.2714 19.5188 40.1677C19.6328 39.9914 19.7543 39.8132 19.9023 39.6415L19.9671 39.1872C19.9838 39.086 20.0041 38.9757 20.0319 38.865C20.1161 38.531 20.1463 38.3102 20.1635 38.1982C20.2374 37.7186 20.7177 37.3845 21.2361 37.4526C21.7545 37.5208 22.1154 37.9654 22.042 38.445C22.0288 38.5307 21.9967 38.7236 21.9364 39.0004C21.993 39.0245 22.0516 39.0529 22.1087 39.0912C22.4866 39.3451 22.6424 39.7151 22.7127 39.9123C22.7529 40.0253 22.7829 40.1339 22.8034 40.214C22.8279 40.3093 22.8367 40.3462 22.8479 40.3837C22.9174 40.6166 23.0013 40.9115 23.0702 41.3555C23.114 41.6379 23.1328 41.9116 23.1443 42.1646C23.6532 42.3733 23.9215 42.8222 24.0521 43.0799C24.2287 43.4286 24.3532 43.8364 24.4411 44.1992C24.5676 44.7213 24.4992 45.1862 24.4152 45.5191C24.5483 45.5704 24.6461 45.6353 24.7005 45.675C24.7953 45.7445 24.8796 45.8243 24.9524 45.9064C25.0997 46.0726 25.2339 46.2851 25.3452 46.5389C25.4061 46.6778 25.4692 46.7951 25.5508 46.9555C25.6275 47.1062 25.7196 47.2897 25.7935 47.5005C25.7941 47.5016 25.8091 47.541 25.8658 47.6497C25.9279 47.7689 25.9774 47.8584 26.0659 48.0268C26.075 48.0442 26.0824 48.0635 26.0918 48.0816C26.1734 48.1683 26.2421 48.2347 26.3011 48.2856C26.4748 48.4353 26.558 48.4673 26.7995 48.6164C26.7778 48.603 26.7826 48.6157 26.9051 48.6404C26.9752 48.6546 27.0213 48.6617 27.1274 48.6816C27.2169 48.6983 27.33 48.7209 27.4497 48.7535C27.6474 48.8073 27.8365 48.8044 28.4335 48.805C28.4829 48.805 28.5533 48.7939 28.6558 48.7518C28.7687 48.7054 28.8634 48.6495 29.0189 48.5633C29.2031 48.4612 29.3906 48.393 29.5228 48.3439C29.6558 48.2945 29.7832 48.2435 29.9433 48.1725C29.9481 48.1671 29.9549 48.1605 29.9619 48.1519C29.9861 48.1218 30.0156 48.0828 30.0563 48.0233C30.0892 47.9754 30.1478 47.8864 30.1971 47.8159C30.3657 47.575 30.5289 47.4032 30.6621 47.2726C30.8164 47.1213 30.8464 47.0988 30.8882 47.048C30.9877 46.9271 31.111 46.7897 31.1735 46.7172C31.2508 46.6275 31.2948 46.5714 31.3235 46.5252C31.3386 46.501 31.3824 46.4142 31.4421 46.2595C31.4979 46.1151 31.5558 45.9409 31.6051 45.759C31.7275 45.3073 31.766 45.0127 31.8515 44.5643C31.8907 44.3587 31.9358 44.1689 31.9775 43.997C32.0201 43.8215 32.0589 43.6612 32.0942 43.4844C32.1609 43.1502 32.1753 42.911 32.2035 42.6085C32.2206 42.4252 32.2509 42.2582 32.2776 42.1183C32.3058 41.9708 32.328 41.8591 32.3462 41.7344C32.3699 41.5709 32.3837 41.4425 32.3999 41.3024C32.4154 41.1675 32.4338 41.0178 32.4684 40.8568C32.5046 40.6883 32.5222 40.5153 32.5407 40.3202C32.5562 40.1565 32.5778 39.905 32.6333 39.6929C32.7112 39.3957 32.7646 39.2077 32.8186 38.9233C32.8762 38.6194 32.9003 38.3759 32.926 37.7251C32.9356 37.4833 32.9581 37.2708 32.9779 37.0669C32.9979 36.8607 33.0176 36.6403 33.0298 36.347L33.0316 36.3299C33.0445 36.123 33.0745 35.996 33.1094 35.8825C33.1333 35.8051 33.157 35.7402 33.1743 35.6922Z" fill="#FF0000"/>
<path d="M44.9971 32.397C45.2657 32.3774 45.4916 32.464 45.6455 32.5719C45.8865 32.7409 45.9611 32.9638 45.9697 32.9867C46.0098 33.0939 46.0185 33.187 46.0197 33.1992C46.0252 33.2526 46.0253 33.3035 46.0253 33.326C46.0253 33.5517 46.1069 33.8427 46.192 34.1677C46.206 34.2211 46.2171 34.2773 46.2309 34.3339C46.3044 34.3086 46.3879 34.2864 46.4829 34.2791C46.8005 34.2548 47.0484 34.3787 47.1943 34.4985C47.3218 34.6032 47.387 34.7147 47.4147 34.7659C47.4466 34.8248 47.4659 34.8767 47.4759 34.9064C47.5067 34.999 47.5168 35.0874 47.5185 35.1001C47.5302 35.188 47.5265 35.1779 47.5333 35.2184C47.5888 35.5504 47.6153 35.9354 47.6426 36.3017C47.671 36.6833 47.7029 37.0833 47.7667 37.5101C47.7777 37.5837 47.815 37.7119 47.8927 37.9387C47.9601 38.1353 48.0561 38.4018 48.1243 38.6586C48.1359 38.7026 48.1409 38.7505 48.152 38.7991C48.2326 38.8073 48.3057 38.8208 48.367 38.8403C48.6331 38.9249 48.7917 39.0959 48.8338 39.1402C48.9037 39.214 48.9643 39.2927 49.0117 39.3613C49.1016 39.4916 49.2919 39.7506 49.4544 40.1944C49.6122 40.6253 49.7347 41.1998 49.7749 42.0028C49.8031 42.5656 49.816 43.3526 49.8212 44.1436C50.219 44.0724 50.5726 44.2313 50.7809 44.4573C50.9203 44.6086 50.9869 44.7724 51.018 44.9047L51.0384 45.0247L51.068 45.5132C51.0784 46.0482 51.0333 46.7031 50.9606 47.2993C50.9301 47.5495 50.9053 47.8819 50.8772 48.3037C50.9712 50.8325 50.8293 52.6575 50.7661 53.0655C50.6932 53.5357 50.6602 53.9229 50.6345 54.2807C50.6096 54.6286 50.5887 54.9888 50.5345 55.3418C50.4894 55.6359 50.457 56.0018 50.4233 56.4062C50.3909 56.7956 50.3565 57.2227 50.3048 57.5906C50.2625 57.891 50.2305 58.2112 50.1955 58.5522C50.1612 58.8859 50.1246 59.2402 50.0732 59.5756C50.0056 60.0169 49.9328 60.4825 49.8064 60.9725C49.7265 61.2825 49.6851 61.6277 49.6601 62.037C49.705 62.0435 49.747 62.0526 49.7842 62.0627C49.9308 62.1027 50.0348 62.1656 50.0843 62.1981C50.1767 62.2589 50.2483 62.3288 50.2622 62.3421C50.2697 62.3493 50.2772 62.3559 50.2825 62.3609C50.3742 62.418 50.5539 62.514 50.8216 62.6403C51.1431 62.792 51.3436 62.8795 51.6775 63.0363C51.9275 63.1536 52.2358 63.3011 52.4334 63.4374C52.4606 63.4562 52.4979 63.4839 52.539 63.518C52.6447 63.4595 52.7599 63.402 52.8447 63.3603C53.176 63.197 53.4987 63.0376 53.695 62.894C53.8199 62.8026 53.9524 62.7222 54.0859 62.6506C54.0868 62.6167 54.0861 62.5854 54.0878 62.5581C54.1173 62.0648 54.4015 61.7161 54.651 61.497C54.7128 61.4427 54.7793 61.3925 54.8455 61.3445C54.8481 60.8979 55.0984 60.5288 55.2549 60.3349C55.581 59.9312 55.981 59.7002 56.372 59.5704C56.4998 59.4142 56.6321 59.2765 56.7629 59.1573C56.8288 59.0591 56.8815 58.9753 56.9222 58.8934C57.0431 58.65 57.1735 58.418 57.2909 58.2094C57.412 57.9942 57.5205 57.8035 57.6151 57.6129C57.8252 57.1898 57.9942 56.8092 58.1338 56.4216C58.2028 56.2303 58.2432 55.9709 58.2858 55.6314C58.3204 55.3549 58.3641 54.929 58.4803 54.6064C58.557 54.3934 58.6302 54.1676 58.7063 53.9294C58.7804 53.6974 58.8586 53.4502 58.9416 53.2197C59.0799 52.8358 59.1338 52.5343 59.2083 52.2547L59.2565 52.1004C59.2784 52.0405 59.308 51.9748 59.3454 51.9102C59.3782 51.8537 59.4692 51.7056 59.6511 51.5845C59.8909 51.425 60.2584 51.3412 60.6237 51.4971C60.8923 51.6117 61.0225 51.803 61.0628 51.8656C61.1168 51.9495 61.149 52.0273 61.1665 52.0747C61.2026 52.1725 61.2255 52.2731 61.2406 52.3507C61.3006 52.658 61.3411 53.1459 61.3722 53.6294C61.4405 54.691 61.4679 55.7859 61.4982 56.1457C61.5496 56.7583 61.5282 57.4357 61.3518 58.0175C61.2217 58.4465 61.1698 58.8286 61.111 59.2602C61.043 59.7587 60.8648 60.3427 60.7682 60.7326C60.6326 61.2806 60.3893 61.7745 60.1198 62.2358C60.1119 62.2495 60.1036 62.2631 60.0957 62.277C60.0812 62.4065 60.0674 62.5243 60.0531 62.6249C59.9984 63.0111 59.7736 63.2686 59.5251 63.434C59.5153 63.4526 59.5093 63.4736 59.4992 63.4922C59.3476 63.7724 59.148 63.9992 58.9694 64.1864C58.9487 64.2526 58.9313 64.3161 58.9119 64.375C58.8833 64.6093 58.7862 64.8072 58.6822 64.9509C58.6477 65.011 58.6084 65.0653 58.5673 65.1172C58.3259 65.7909 57.9633 66.3661 57.667 66.8021C57.3846 67.2177 56.9814 67.3813 56.661 67.4329C56.39 67.4765 56.1508 67.4505 55.9385 67.3884C55.8191 67.4822 55.6984 67.571 55.581 67.6592C55.2696 68.1677 54.8832 68.6365 54.5954 69.003C54.4613 69.1738 54.1082 69.4901 53.5653 69.3973C53.4712 69.3811 53.3877 69.3527 53.3134 69.3201C53.1194 69.4509 52.9448 69.5681 52.8095 69.6647C52.4775 69.9014 52.1073 70.061 51.8035 70.1789C51.4414 70.3194 51.2565 70.3749 51.0125 70.4789C50.6584 70.6296 50.2678 70.6966 49.9824 70.7428C49.6525 70.7963 49.4298 70.827 49.2228 70.8817C48.4733 71.0796 47.8748 71.0931 47.2795 71.1422C46.853 71.1774 46.0121 71.3044 44.9007 71.3582C44.5478 71.3752 43.1978 71.4484 41.2734 71.4662C39.8982 71.4789 38.7563 71.6186 37.9035 71.677C37.1803 71.7265 36.3411 71.7312 35.61 71.7079C34.9033 71.6853 34.2097 71.6345 33.8148 71.5519C33.349 71.4544 32.8436 71.3511 32.3031 71.1971C31.7647 71.0437 30.9929 70.8838 30.3968 70.3074C30.1114 70.0315 29.8195 69.7179 29.6279 69.4144C29.2985 68.8921 29.314 68.3028 29.3908 67.8803C29.471 67.4398 29.6471 67.019 29.8373 66.7164C29.946 66.5435 30.0719 66.38 30.2059 66.2211C30.2929 66.1004 30.3888 65.979 30.456 65.8937C30.5446 65.7813 30.5994 65.7052 30.6357 65.6451C30.682 65.5686 30.7288 65.4972 30.771 65.4292C30.5946 64.7163 30.7735 64.0313 31.047 63.4802C31.081 63.4119 31.1232 63.341 31.1656 63.266C30.9906 63.0588 30.8831 62.8694 30.8043 62.7158C30.5408 62.2017 30.5252 61.6278 30.6135 61.0942C30.7031 60.5532 30.9113 59.9755 31.1897 59.3922C31.5416 58.6547 32.1466 58.0728 32.7903 57.5838C33.4304 57.0976 34.1931 56.6435 34.9097 56.204C35.2729 55.9811 35.6484 55.7865 36.025 55.6092C36.1201 55.4743 36.2375 55.3318 36.3844 55.1926C37.1902 54.4291 37.9414 53.7078 38.3185 53.2677C38.3554 53.2245 38.4088 53.1462 38.4908 53.0072C38.4927 53.0039 38.4943 53.0003 38.4963 52.9969C38.4884 52.8571 38.5015 52.6908 38.55 52.5307L38.6241 52.3198C38.8227 51.8289 39.1825 51.3297 39.4745 50.9468C39.8689 50.4298 40.1593 50.0957 40.3193 49.8464C40.5458 49.4933 40.8468 48.9789 41.1622 48.5231C41.48 48.0639 41.7085 47.5956 41.9218 47.1484C42.1501 46.6696 42.2941 46.276 42.4461 45.8543C42.6004 45.426 42.7659 44.9688 43.0333 44.3973C43.1085 44.2367 43.1497 44.0476 43.1834 43.7648C43.2131 43.5154 43.2411 43.1162 43.3168 42.7381C43.6477 41.0855 43.4915 40.9387 43.5761 40.1892C43.588 40.0842 43.6059 39.9827 43.628 39.8859C43.5858 39.6291 43.5475 39.3885 43.5113 39.1694C43.3343 38.0994 43.2228 37.5048 43.1574 37.1433C43.0998 36.8247 43.0545 36.5828 43.0741 36.3377L43.1056 36.1389C43.2097 35.7278 43.5135 35.4707 43.7114 35.335C43.7235 35.2701 43.7325 35.2038 43.7484 35.1378C43.8847 34.5733 43.9828 34.0164 44.0467 33.6294C44.0766 33.4483 44.1029 33.2773 44.1208 33.1838C44.1254 33.1599 44.1319 33.1241 44.1412 33.0878C44.1453 33.0718 44.1565 33.0351 44.1727 32.9918C44.1804 32.9711 44.1955 32.9286 44.2227 32.8787C44.2361 32.8541 44.312 32.7108 44.4784 32.5873C44.5732 32.5168 44.7489 32.4153 44.9971 32.397ZM33.6777 59.1967C33.3132 59.5106 33.0671 59.8053 32.9256 60.1018C32.6873 60.601 32.544 61.0234 32.4883 61.3599C32.4608 61.5267 32.456 61.6554 32.4643 61.7524C32.5492 61.6648 32.6296 61.5878 32.6977 61.521C32.7489 61.4707 32.811 61.3805 32.8867 61.2039C32.9238 61.1171 32.9589 61.0226 32.9997 60.9108C33.038 60.8058 33.0829 60.6766 33.133 60.5526C33.2045 60.3761 33.2946 60.2116 33.3961 60.0589C33.3971 59.9125 33.4235 59.7736 33.4628 59.6493C33.5144 59.4863 33.5938 59.3337 33.6777 59.1967Z" fill="#FFCC00"/>
<path d="M37.067 7.13495C37.3665 7.10903 37.6114 7.20246 37.7543 7.27722C37.9277 7.36802 38.0633 7.48841 38.1619 7.60118L38.2415 7.69374L38.2934 7.80173C38.5575 8.36134 38.7189 8.91834 38.7399 10.5563V10.5837L38.738 10.6111C38.7147 11.0313 38.662 11.2162 38.5954 11.4013C38.4297 11.8611 37.8919 12.1099 37.3949 11.9567C36.8982 11.8035 36.6295 11.3073 36.7946 10.8477C36.8113 10.8013 36.8144 10.7935 36.8187 10.7722C36.8246 10.7431 36.8348 10.6793 36.8428 10.5494C36.8415 10.4581 36.8339 10.3715 36.8317 10.2889C36.3338 10.2621 35.9387 9.88375 35.9387 9.4164C35.9387 9.00992 35.9382 8.56174 35.9832 8.18397C36.0313 7.78274 36.3258 7.27559 36.9354 7.15381L37.067 7.13495Z" fill="#FF0000"/>
<path d="M60.9808 21.6954C60.5856 25.3083 60.301 28.3214 59.9058 31.3199C59.6845 32.9581 58.9573 34.3769 56.9654 34.7719C55.3054 35.0937 53.5823 34.2453 52.5863 32.3584C51.622 30.5447 50.9264 28.5993 50.1992 26.6832C48.0966 21.1835 44.8558 16.2981 40.8404 11.8369C39.5915 10.4474 38.3584 9.05784 36.9198 7.44888C36.6036 8.42888 36.3507 9.21873 36.0977 10.0086C33.4102 18.5946 32.4933 27.3414 32.9043 36.2492C33.0308 39.1307 32.6672 42.0707 32.2246 44.9375C31.94 46.7805 31.197 48.6528 28.794 49.0623C27.0709 49.3549 25.3635 48.0384 24.3202 45.6396C23.6246 44.0307 23.1661 42.3193 22.5338 40.6811C22.186 39.7596 21.6801 38.8966 21.2216 37.9313C15.4198 44.4548 19.8463 65.971 27.5768 69.1157C27.6084 63.3528 30.4698 58.5844 33.8529 54.0793C38.6429 47.702 41.2514 40.6519 42.1209 32.9874C42.1841 32.4169 42.3106 31.8319 42.4213 31.276C42.9588 28.6725 44.1128 28.2483 46.2154 30.179C47.5749 31.4223 48.7764 32.9581 49.5668 34.5525C53.4874 42.3632 55.1157 50.4665 52.4599 58.9793C52.1595 59.9154 51.4797 61.2319 51.9856 61.9047C52.8709 62.9286 54.2621 61.1734 54.5624 60.4566C55.3529 58.5698 55.8429 56.5951 56.4753 54.6498C56.8705 53.4357 57.1076 52.1047 57.819 51.0516C58.3724 50.2325 59.5738 49.2232 60.3959 49.2963C61.2496 49.3695 62.4352 50.4957 62.7198 51.3734C64.8066 57.9116 63.8264 63.8939 57.3132 68.9695C53.9617 71.5877 49.8356 72.436 45.6146 72.948C40.8562 73.5184 36.161 73.694 31.3867 72.6847C29.1102 72.202 26.7389 71.8802 25.3635 71.4122C23.9882 70.9441 22.8183 69.9934 22.265 69.2035C15.2301 59.1548 14.076 48.565 19.0242 37.4632C20.0518 35.1668 22.0279 34.6841 23.7668 36.5856C25.0474 37.9898 25.7746 39.8766 26.5808 41.6319C27.1341 42.8605 27.4345 44.1916 27.8139 45.4787C28.2882 47.0877 28.9838 47.3363 29.458 47.0584C30.0429 46.8975 30.3907 44.9522 30.3275 43.0068C30.2168 39.8035 30.2801 36.5856 29.9165 33.4116C28.8573 24.1089 31.3076 15.3913 34.8804 6.84918C35.7657 4.71366 36.7775 4.45037 38.6746 5.94231C46.4525 12.0417 52.0646 19.4722 54.6099 28.7163C55.0051 30.1205 55.1315 31.7002 57.0602 32.8119C57.2499 31.4516 57.408 30.3253 57.5819 29.2137C58.0246 26.4638 58.3091 23.6847 58.9731 20.9934C59.3841 19.3698 60.6014 19.0334 61.8819 20.2035C63.5576 21.7393 65.2018 23.436 66.2926 25.3522C70.3554 32.5193 71.7466 40.3008 71.715 48.3163C71.6834 54.6205 70.4187 60.7345 67.2885 66.3659C66.2293 68.282 64.4429 69.8617 62.9253 71.5438C62.2455 72.3044 60.6963 72.0557 61.4076 70.359C61.4709 70.2128 61.5499 70.0372 61.6606 69.891C67.5415 62.5922 68.1264 54.0501 68.2054 45.4495C68.2687 38.5895 67.1937 31.8611 63.7316 25.6593C63.0043 24.3868 62.0716 23.2459 60.9808 21.6954ZM60.1271 51.6951C59.1944 54.562 58.4672 56.9316 57.6293 59.2865C56.9654 61.1441 55.9536 62.8262 53.9617 63.7477C51.6536 64.8301 49.4088 63.6307 49.2823 61.2319C49.2349 60.2519 49.2823 59.2426 49.4878 58.2919C51.1003 50.6566 50.3415 43.2554 47.1165 36.0737C46.5632 34.845 45.7569 33.7187 44.9507 32.3731C44.6661 32.8119 44.4606 34.4062 44.429 35.0937C44.2235 40.3008 43.5911 45.4495 40.6349 50.0423C38.8643 52.7775 36.8724 55.3957 34.9437 58.0578C32.8095 61.0271 30.9124 64.0987 30.2168 67.6677C29.7426 70.1104 29.9481 70.2274 32.4775 70.8271C37.8367 72.085 43.0852 71.2805 48.3179 70.3151C54.2779 69.2181 57.9929 65.5907 60.2062 60.5883C61.4235 57.8531 61.0757 55.0154 60.1271 51.6951Z" fill="black"/>
<path d="M57.5191 68.9693L57.6136 68.9882L57.7358 69.0396L57.8526 69.1236L57.8674 69.139L57.8692 69.1425L57.8896 69.1562C57.997 69.2379 58.0723 69.3395 58.1286 69.4099C58.1314 69.4133 58.1355 69.4184 58.1453 69.427C58.1512 69.4322 58.1589 69.4391 58.1693 69.4476C58.1745 69.4517 58.1797 69.4562 58.186 69.4613C58.1922 69.4663 58.2008 69.4724 58.2082 69.4784C58.2625 69.5223 58.3016 69.5527 58.3583 69.5916C58.4509 69.655 58.4847 69.6833 58.551 69.7235C58.7092 69.8196 58.8943 69.9503 58.9641 69.9995C58.9846 70.0139 59.1327 70.106 59.2309 70.2206C59.2336 70.2232 59.2442 70.2325 59.2735 70.2583C59.3087 70.2893 59.3617 70.3351 59.4273 70.3972C59.5227 70.4877 59.5896 70.5542 59.6588 70.6097C59.7265 70.664 59.7817 70.72 59.82 70.7606C59.8374 70.7789 59.8602 70.8032 59.87 70.8137C59.8759 70.82 59.8795 70.8255 59.883 70.8291C59.8864 70.8327 59.8886 70.8343 59.8886 70.8343C59.9218 70.8658 59.9795 70.9127 60.046 70.9663C60.1023 71.0115 60.1788 71.0705 60.2165 71.1017C60.254 71.1328 60.3129 71.1846 60.3702 71.2337C60.4301 71.2849 60.4932 71.3375 60.5462 71.3811C60.6249 71.4457 60.6492 71.4672 60.6741 71.4822C60.6989 71.4972 60.69 71.4901 60.7593 71.5285C60.7809 71.5405 60.8121 71.5584 60.8463 71.5816L60.9538 71.6673L61.0075 71.7222C61.0215 71.7373 61.0267 71.7441 61.0335 71.7513C61.0415 71.7558 61.0515 71.7613 61.065 71.7684C61.0858 71.7796 61.1213 71.7983 61.1557 71.8182C61.1883 71.837 61.2102 71.847 61.2224 71.8507C61.2203 71.8501 61.2203 71.8495 61.2391 71.8541C61.2528 71.8575 61.2832 71.8646 61.3151 71.8747C61.3829 71.8962 61.4881 71.9391 61.5837 72.0307C61.6492 72.0937 61.7071 72.1506 61.7615 72.197C61.7714 72.2054 61.8703 72.287 61.8931 72.3067C61.932 72.3403 62.008 72.4065 62.0635 72.4901C62.2005 72.6967 62.1312 72.9667 61.9079 73.0934C61.6847 73.22 61.3928 73.1557 61.2558 72.9494C61.2681 72.968 61.2768 72.9762 61.2724 72.9717C61.269 72.9683 61.2615 72.9607 61.2465 72.9477C61.2316 72.9349 61.215 72.9198 61.1928 72.9015C61.1718 72.8842 61.1461 72.8632 61.1205 72.8415C61.0638 72.7932 61.0088 72.7395 60.9594 72.6923C60.9489 72.6896 60.9359 72.6863 60.9223 72.6821C60.8229 72.6514 60.7329 72.6096 60.6537 72.5638C60.6375 72.5544 60.6206 72.5455 60.5907 72.5295C60.5645 72.5155 60.5274 72.4952 60.4888 72.4712C60.41 72.4224 60.3556 72.3655 60.3258 72.3341C60.3122 72.3198 60.2939 72.3022 60.2869 72.2947C60.2833 72.2908 60.2802 72.2871 60.2776 72.2844C60.2761 72.2835 60.2739 72.282 60.272 72.281C60.2598 72.2742 60.2488 72.2683 60.2276 72.257C60.2095 72.2474 60.1824 72.2339 60.1553 72.2175C60.0557 72.1573 59.9638 72.0765 59.9163 72.0376C59.8553 71.9874 59.7854 71.9293 59.7255 71.8781C59.6629 71.8246 59.613 71.7814 59.5829 71.7564C59.5433 71.7236 59.3204 71.5503 59.2105 71.4462C59.1876 71.4245 59.1661 71.4022 59.1512 71.3862C59.1325 71.3661 59.1227 71.3551 59.1068 71.3382C59.0785 71.3083 59.0567 71.2879 59.0382 71.2731C58.9306 71.1868 58.8267 71.0843 58.7492 71.0108C58.6983 70.9626 58.6584 70.9285 58.6195 70.8943C58.5859 70.8647 58.534 70.8193 58.488 70.7657C58.4937 70.7722 58.4934 70.7691 58.475 70.7554C58.4661 70.7488 58.4544 70.7414 58.4398 70.7314C58.4277 70.7231 58.4071 70.7093 58.3898 70.6971C58.3223 70.6496 58.1589 70.5369 58.0304 70.4589C57.9378 70.4027 57.8273 70.3211 57.7933 70.2978C57.7039 70.2365 57.6415 70.1849 57.5839 70.1384C57.5478 70.1091 57.4495 70.0362 57.3653 69.9309C57.3465 69.9074 57.3319 69.8904 57.319 69.8744C57.3063 69.8587 57.2977 69.8474 57.2912 69.8401C57.2802 69.8276 57.2813 69.8302 57.2875 69.835L57.2894 69.8332C57.2638 69.8153 57.2396 69.7985 57.219 69.7801C57.0314 69.6765 56.939 69.4635 57.0115 69.2642C57.0847 69.0634 57.3003 68.9444 57.5191 68.9693Z" fill="white"/>
<path d="M58.5055 69.8242L58.5222 69.8277L58.5203 69.8294L58.7297 69.9185L58.7389 69.9219C58.7718 69.9418 58.7997 69.9576 58.8297 69.9751C58.858 69.9916 58.8864 70.0104 58.9131 70.0316C58.9284 70.0438 58.9431 70.0539 58.965 70.0693C58.9865 70.0845 59.0132 70.1042 59.0502 70.1328L59.2836 70.3127C59.2996 70.3246 59.3046 70.3285 59.304 70.3282C59.3216 70.3377 59.3519 70.353 59.3781 70.3744C59.391 70.3851 59.4064 70.3946 59.4225 70.4053C59.4371 70.415 59.4562 70.4275 59.4726 70.4396C59.5154 70.4713 59.5523 70.5018 59.5782 70.5184C59.6175 70.5436 59.6621 70.5828 59.7023 70.6178C59.7425 70.6528 59.7721 70.6763 59.8005 70.7018C59.8423 70.7394 59.8596 70.7474 59.8987 70.779C59.9252 70.8004 59.9424 70.8101 59.982 70.8372C60.0335 70.8726 60.0506 70.8909 60.1062 70.923C60.1497 70.9481 60.1983 70.9817 60.2451 71.0258C60.311 71.0879 60.3814 71.1487 60.4248 71.1921C60.4438 71.2109 60.4671 71.2248 60.4989 71.2418C60.5255 71.256 60.555 71.2754 60.5786 71.2898C60.605 71.3059 60.6218 71.3151 60.6304 71.3189C60.6536 71.3288 60.6746 71.3418 60.6897 71.3515C60.7062 71.3621 60.7213 71.3724 60.7397 71.3823C60.7679 71.3974 60.8171 71.4217 60.8527 71.4577L60.938 71.5366L61.0769 71.648C61.092 71.6603 61.0999 71.6664 61.1047 71.6686C61.1345 71.6812 61.1759 71.6996 61.2196 71.7251C61.2511 71.7436 61.2787 71.7554 61.3029 71.7629C61.3132 71.766 61.3272 71.7686 61.3474 71.7731C61.3658 71.7773 61.3889 71.7817 61.4122 71.7886C61.433 71.7947 61.4522 71.8036 61.466 71.8091C61.4809 71.8151 61.4919 71.8197 61.503 71.8228C61.526 71.8295 61.5505 71.8377 61.5697 71.8451C61.5908 71.8533 61.6069 71.8612 61.6216 71.8657C61.6511 71.8748 61.6785 71.883 61.7124 71.8914C61.7285 71.8954 61.7435 71.8987 61.7587 71.9017C61.7732 71.9046 61.7905 71.9065 61.8068 71.9103C61.8117 71.9114 61.8151 71.912 61.8383 71.9137C61.8572 71.9151 61.8866 71.918 61.918 71.9308C61.9275 71.9347 61.9379 71.9419 61.9495 71.948C61.9517 71.9482 61.9547 71.9477 61.9569 71.948C61.9841 71.9513 62.0324 71.9612 62.0643 72.0011C62.0791 72.0197 62.0901 72.047 62.0847 72.0765C62.0816 72.0932 62.0729 72.1137 62.0551 72.1297C62.0371 72.1457 62.0144 72.1529 61.9958 72.1554L61.9939 72.1571C61.9881 72.159 61.9741 72.1623 61.9606 72.1657C61.9498 72.1683 61.9358 72.1685 61.9198 72.1691C61.9157 72.182 61.9088 72.1909 61.9013 72.1999C61.9066 72.2012 61.9111 72.203 61.9143 72.2034C61.966 72.209 62.0034 72.2531 61.9977 72.3011C61.9916 72.349 61.9439 72.3835 61.8921 72.3782C61.8578 72.3746 61.8176 72.3621 61.792 72.3542C61.7467 72.3402 61.7025 72.3136 61.666 72.2925C61.6139 72.2624 61.5866 72.2198 61.5753 72.1948C61.5716 72.1867 61.5709 72.1784 61.5697 72.1708C61.5594 72.1628 61.546 72.1565 61.5364 72.1468L61.5141 72.1262C61.4939 72.103 61.4752 72.0621 61.4956 72.0165V72.0131C61.4893 72.0102 61.4812 72.0096 61.4752 72.0063C61.4729 72.005 61.4685 72.0025 61.4641 71.9994C61.4632 71.9988 61.4606 71.9959 61.4567 71.9925C61.4534 71.9914 61.4504 71.99 61.4474 71.9891C61.4253 71.9827 61.4046 71.9761 61.39 71.9703C61.3744 71.964 61.3647 71.9595 61.3548 71.9565C61.3387 71.9518 61.3217 71.9471 61.3029 71.9428C61.2856 71.9389 61.2629 71.935 61.2436 71.9291C61.2028 71.9165 61.1619 71.8973 61.1195 71.8726C61.0877 71.8539 61.0563 71.8405 61.0269 71.828C60.9955 71.8147 60.9703 71.7942 60.9528 71.78C60.932 71.7631 60.9207 71.754 60.9065 71.744C60.8725 71.7202 60.8253 71.6868 60.7916 71.6497C60.7832 71.6405 60.7727 71.6297 60.7583 71.6172C60.7455 71.6061 60.7268 71.5911 60.712 71.576C60.7001 71.5642 60.6806 71.5521 60.6453 71.5332C60.6189 71.519 60.5975 71.5053 60.5823 71.4955C60.5662 71.4851 60.5586 71.4809 60.5526 71.4783C60.5282 71.4679 60.4979 71.4496 60.4748 71.4355C60.4482 71.4192 60.4231 71.4036 60.4026 71.3926C60.3695 71.3749 60.3238 71.3502 60.284 71.3103C60.2421 71.2685 60.184 71.2174 60.1099 71.1475C60.077 71.1167 60.0411 71.0923 60.0061 71.0721C59.9456 71.0371 59.8942 70.9951 59.869 70.9778C59.8485 70.9637 59.8054 70.9374 59.7727 70.911C59.7564 70.8979 59.7104 70.8658 59.6689 70.8287C59.641 70.8035 59.6182 70.7844 59.5726 70.7447C59.5287 70.7065 59.4958 70.6785 59.4707 70.6624C59.4379 70.6414 59.3855 70.6001 59.354 70.5767C59.3427 70.5683 59.3301 70.56 59.3114 70.5476C59.2941 70.5361 59.2725 70.5215 59.2521 70.5047C59.2431 70.4975 59.2311 70.4918 59.2076 70.479C59.1947 70.4719 59.1789 70.4601 59.165 70.4499C59.1489 70.4379 59.1289 70.4215 59.1058 70.4036C59.0587 70.3671 58.9984 70.3208 58.9279 70.2665C58.8939 70.2403 58.8704 70.2225 58.8501 70.2082C58.8299 70.194 58.8095 70.1816 58.789 70.1653C58.7732 70.1528 58.7544 70.1397 58.7278 70.1242C58.705 70.1109 58.6743 70.0934 58.6426 70.0745C58.5796 70.0448 58.5311 70.0243 58.4888 70.0076C58.4654 70.0153 58.4387 70.0153 58.4147 70.0042C58.3679 69.9825 58.3487 69.9293 58.3721 69.8859L58.411 69.8414C58.4272 69.8307 58.445 69.8265 58.461 69.8242H58.5055Z" fill="white"/>
<path d="M57.4792 68.8859C57.4946 68.8899 57.5127 68.8984 57.5273 68.9048C57.5599 68.919 57.6036 68.9404 57.6403 68.9613C57.6793 68.9836 57.6955 68.986 57.7441 69.0093C57.7803 69.0267 57.802 69.0405 57.8293 69.0522C57.8505 69.0612 57.8712 69.0713 57.8867 69.0796C57.904 69.0888 57.9157 69.0959 57.9256 69.1002C57.9544 69.1124 57.9786 69.1292 57.9942 69.1413C58.0126 69.1557 58.0209 69.1619 58.0312 69.1687C58.0604 69.1879 58.0794 69.2123 58.0924 69.2287C58.1067 69.247 58.1141 69.2578 58.1257 69.2699C58.1423 69.2871 58.1561 69.3064 58.1665 69.3196C58.1777 69.3338 58.1897 69.347 58.2054 69.3624C58.2302 69.3868 58.2548 69.4048 58.2888 69.4276C58.3124 69.4434 58.353 69.4669 58.3869 69.4944C58.3979 69.5033 58.4106 69.5121 58.4277 69.5235C58.4436 69.5342 58.4645 69.5478 58.4833 69.563C58.5135 69.5873 58.5431 69.6042 58.5889 69.6367L58.8371 69.8458C58.8774 69.8762 58.9075 69.9034 58.939 69.9315C58.9493 69.9405 58.9606 69.9485 58.9761 69.9572C58.9885 69.9642 59.0153 69.9775 59.0354 69.9898C59.0802 70.0174 59.1185 70.0469 59.165 70.0823C59.1887 70.1004 59.2099 70.1148 59.2317 70.1286C59.2523 70.1416 59.2781 70.1567 59.3003 70.1749C59.3093 70.1823 59.3193 70.1902 59.3355 70.1989C59.3497 70.2065 59.3749 70.2185 59.3966 70.2315C59.4202 70.2456 59.4424 70.2605 59.4614 70.2743C59.4813 70.2887 59.5002 70.303 59.5226 70.3172C59.5477 70.3331 59.5763 70.3569 59.6004 70.3772C59.6266 70.3992 59.6541 70.4222 59.6838 70.444C59.7226 70.4725 59.752 70.492 59.7857 70.516C59.8058 70.5303 59.8236 70.5427 59.8431 70.5554C59.8619 70.5677 59.883 70.5814 59.9042 70.5983C59.9315 70.6199 59.9565 70.6346 60.0006 70.6634C60.0416 70.6904 60.077 70.7203 60.1062 70.744C60.1354 70.7677 60.1668 70.7857 60.1969 70.8023C60.2187 70.8142 60.2387 70.8277 60.2525 70.8365C60.268 70.8465 60.2758 70.8526 60.2821 70.8554C60.3068 70.8659 60.3303 70.8787 60.347 70.8897C60.3657 70.9019 60.3796 70.9116 60.3952 70.9205C60.4243 70.9371 60.4532 70.9604 60.4748 70.9771C60.4999 70.9964 60.5149 71.0073 60.5248 71.0131C60.5535 71.0298 60.5766 71.0487 60.5952 71.0645C60.6154 71.0817 60.6284 71.0928 60.6434 71.1039C60.6765 71.1285 60.7102 71.1476 60.7472 71.1691C60.7881 71.1929 60.8208 71.2164 60.8546 71.2393C60.876 71.2539 60.8957 71.2681 60.912 71.2805C60.9284 71.2929 60.9424 71.3039 60.9583 71.3148C60.9959 71.3402 61.0461 71.375 61.0862 71.4108C61.0904 71.4146 61.099 71.4201 61.114 71.4279C61.1246 71.4334 61.1506 71.4456 61.1677 71.4553C61.202 71.4748 61.225 71.4907 61.2807 71.517C61.3191 71.5352 61.3528 71.5538 61.3919 71.5787C61.4096 71.59 61.4221 71.6034 61.4308 71.613C61.4349 71.6176 61.4403 71.6227 61.4437 71.6267C61.4472 71.6308 61.451 71.6345 61.4548 71.6387C61.4786 71.665 61.5091 71.7008 61.5382 71.7347C61.5575 71.7572 61.575 71.7858 61.5882 71.8118C61.5898 71.8149 61.5904 71.819 61.5919 71.8221C61.6065 71.8292 61.6189 71.8358 61.629 71.841C61.658 71.8557 61.6923 71.8734 61.7179 71.8873C61.7399 71.8992 61.7744 71.9186 61.7957 71.9438C61.8022 71.9516 61.8215 71.9782 61.8142 72.0158C61.8047 72.0642 61.763 72.0832 61.7438 72.0878C61.7245 72.0925 61.7069 72.0894 61.6975 72.0878C61.6871 72.0859 61.6769 72.0834 61.6679 72.0792C61.6672 72.079 61.665 72.0785 61.6623 72.0775C61.6586 72.0762 61.6522 72.073 61.6457 72.0707C61.6387 72.1128 61.6024 72.1461 61.5549 72.1461C61.5028 72.1461 61.4609 72.1068 61.4604 72.0587C61.4604 72.024 61.4603 71.9977 61.4585 71.9833L61.4567 71.9815C61.4439 71.9759 61.431 71.9713 61.4196 71.9661C61.3929 71.9538 61.3729 71.9453 61.3604 71.9404C61.3105 71.9209 61.2698 71.8939 61.227 71.865C61.1969 71.8447 61.1695 71.8267 61.1399 71.8084C61.13 71.8023 61.1205 71.7969 61.1121 71.7913C61.0573 71.7678 61.0054 71.7449 60.9565 71.7227C60.9113 71.7022 60.8646 71.6816 60.7842 71.6439C60.7449 71.6254 60.6649 71.5906 60.5749 71.5376C60.4856 71.4851 60.3856 71.4153 60.3322 71.3782C60.2633 71.3303 60.1818 71.2683 60.0598 71.1725C60.0155 71.1377 59.9785 71.1108 59.9468 71.0902C59.918 71.0715 59.885 71.053 59.8635 71.0371C59.8423 71.0214 59.818 71.0061 59.5041 70.7474C59.3056 70.5839 58.9915 70.3222 58.7074 70.0858C58.6967 70.0775 58.6831 70.0715 58.6722 70.0618C58.6529 70.0443 58.6337 70.026 58.6148 70.0086C58.5265 69.9351 58.4423 69.8663 58.3684 69.8046L58.311 69.7704C58.2939 69.7586 58.2806 69.7478 58.2647 69.7378C58.2286 69.7151 58.1941 69.6896 58.1609 69.659C58.1178 69.6191 58.073 69.569 58.0442 69.5355C58.0211 69.5086 57.9875 69.4795 57.9386 69.4413C57.8995 69.4107 57.8726 69.3889 57.8386 69.3658C57.8231 69.3554 57.8088 69.3477 57.7904 69.3367C57.7736 69.3267 57.7528 69.313 57.733 69.2956C57.7149 69.2795 57.6966 69.26 57.683 69.2459C57.668 69.2303 57.6563 69.2183 57.6459 69.2099C57.6193 69.1883 57.5901 69.1695 57.5681 69.1584C57.5465 69.1477 57.5227 69.139 57.4921 69.131C57.4816 69.1283 57.4537 69.1227 57.4291 69.1122L57.4273 69.1105L57.4254 69.1122C57.4206 69.1128 57.4191 69.1124 57.4199 69.1122C57.4092 69.1146 57.3996 69.1168 57.3921 69.1173C57.3911 69.1267 57.3891 69.1369 57.3884 69.1482C57.3855 69.1966 57.3407 69.2348 57.2884 69.2321C57.2364 69.2293 57.1969 69.1877 57.1994 69.1396C57.2021 69.0942 57.2069 69.0601 57.2124 69.0333L57.2365 68.9853C57.2477 68.9722 57.2618 68.9615 57.2772 68.9545C57.3016 68.9435 57.3259 68.9413 57.3384 68.9408C57.3411 68.9406 57.3446 68.9408 57.3476 68.9408C57.355 68.9291 57.3652 68.9182 57.3791 68.9099L57.381 68.9065C57.4005 68.8892 57.423 68.8857 57.4329 68.8842C57.4435 68.8826 57.4521 68.8821 57.4569 68.8825C57.4668 68.8833 57.4752 68.8849 57.4792 68.8859Z" fill="white"/>
</svg>
