<svg width="92" height="85" viewBox="0 0 92 85" fill="none" xmlns="http://www.w3.org/2000/svg">
<ellipse cx="46.4778" cy="42.1254" rx="38.8897" ry="38.6149" fill="#FFFF00"/>
<path d="M5.78589 40.3408C6.27596 28.4784 11.6668 16.7623 24.3296 8.61514C27.4756 6.59663 31.2065 5.28021 34.8267 4.00767C54.651 -2.95471 78.8068 9.63901 84.0079 32.3984C87.7072 48.5757 83.3756 62.8369 69.6061 73.7339C50.8568 88.5802 23.0017 83.1244 11.2716 62.7053C7.65133 56.3572 5.81751 49.5996 5.78589 40.3408ZM43.9484 77.259C51.9635 77.2736 58.5083 75.3575 63.741 71.9787C84.3399 58.6536 85.9682 28.6393 66.9186 13.4274C58.2396 6.49424 48.1535 4.68051 37.2613 6.91842C33.8782 7.62051 30.6057 9.43424 27.7127 11.3211C10.5918 22.5107 6.10207 45.6357 17.8006 62.3542C24.298 71.6569 33.4829 76.9226 43.9484 77.259Z" fill="black"/>
<path d="M38.5102 66.1133C38.2573 66.5082 37.9411 66.9031 37.704 67.2542C37.1032 68.1464 36.8029 68.4682 35.6646 68.1025C34.811 67.6491 34.9849 66.6545 35.2062 66.1133C35.8069 64.5921 36.5974 63.1294 37.5143 61.7398C37.8779 61.184 38.5893 60.1894 39.3323 60.5112C39.9014 60.833 40.3282 61.0231 39.8382 62.559C39.7433 62.8515 39.6326 63.2025 39.4746 63.6706C43.3951 65.499 47.4106 65.7037 51.5525 64.7822C57.5757 63.4366 63.0929 59.2387 66.2705 54.0754C67.5984 51.9106 68.1518 49.8336 68.879 47.2154C69.0371 46.6742 69.4639 45.7673 69.1951 45.6064C68.8315 45.4016 68.3889 45.1383 67.8672 44.9336C66.8554 44.5533 66.9503 43.8512 67.1558 43.3978C67.5036 42.6079 68.1676 42.5201 68.5786 42.6225C70.9341 43.1783 73.258 43.8804 75.5503 44.6118C75.8665 44.7142 76.2933 45.036 76.1352 45.7381C75.9613 46.4694 75.4396 46.601 74.9812 46.6742C74.2698 46.7912 73.4951 46.6157 72.5466 46.5425C72.2462 47.7273 71.9775 48.9706 71.5981 50.17C68.7051 59.5019 62.4922 65.8207 52.1374 68.2781C47.9797 69.2581 43.7587 68.5121 38.5102 66.1133Z" fill="black"/>
<path d="M59.5833 29.8826C59.5833 28.7271 59.3936 27.5131 59.6624 26.4161C59.8363 25.714 60.2315 24.6462 61.2749 24.6609C62.2866 24.6755 63.0454 25.3629 63.2826 25.9773C64.8002 29.9704 65.4168 34.1098 64.8002 38.3077C64.7528 39.434 63.5671 40.1068 63.0296 40.1068C62.0653 40.1068 61.101 39.5071 60.8322 38.4686C60.105 35.6603 59.441 29.8973 59.5833 29.8826Z" fill="black"/>
<path d="M26.116 29.8095C26.195 29.1074 26.6693 27.8787 27.8075 27.674C29.009 27.3814 29.4358 28.7125 29.5781 29.2976C30.2579 32.1059 30.084 31.5793 30.4318 35.514C30.4634 35.7919 30.574 40.4871 30.4476 41.7596C30.3211 43.1053 29.5307 43.7781 28.8193 43.8074C27.4755 43.8805 27.0487 43.0468 26.7483 42.0668C25.8156 39.0829 25.3729 36.0552 26.116 29.8095Z" fill="black"/>
</svg>
