<svg width="92" height="85" viewBox="0 0 92 85" fill="none" xmlns="http://www.w3.org/2000/svg">
<ellipse cx="36.246" cy="47.8349" rx="29.4044" ry="29.8388" fill="#FFFF00"/>
<ellipse cx="53.3197" cy="38.1812" rx="29.4044" ry="28.9612" fill="#FFFF00"/>
<ellipse cx="43.8343" cy="42.5692" rx="29.4044" ry="29.8388" fill="#FFFF00"/>
<path d="M70.305 34.7914C69.9313 34.6378 69.7235 34.4462 69.5154 34.2629C69.3262 34.0963 69.369 33.773 69.3173 33.3983C69.2505 32.9155 69.3684 32.5595 69.5444 32.4255C69.8433 32.198 70.0548 31.9821 70.1793 31.9149C70.2958 31.8519 70.4292 31.8661 70.5537 31.914C70.8257 32.0187 71.0525 32.2119 71.3024 32.414C71.5331 32.6005 71.7395 32.6934 71.8331 32.7892C72.0316 32.9925 71.9274 33.4035 71.8135 33.6936C71.7895 33.7546 71.7614 33.8088 71.7199 33.8478C71.6351 33.9274 71.4912 33.9445 71.3358 33.9733C71.1227 34.0129 70.9296 33.945 70.7948 33.8492C70.6265 33.7295 70.534 33.5796 70.4925 33.4644C70.451 33.3492 70.4298 33.1951 70.4607 33.0412C70.4736 32.9771 70.5534 32.9636 70.6161 32.9538C70.7393 32.9345 70.866 32.9821 70.9905 33.0779C71.2755 33.2973 71.4269 33.8446 71.5527 34.3186C71.5959 34.4816 71.6154 34.6176 71.5845 34.7138C71.5526 34.813 71.3458 34.7914 71.2004 34.7628C71.1374 34.7342 71.0962 34.6771 71.0441 34.6191C70.992 34.561 70.9302 34.5039 70.8042 34.445" stroke="#F0FF7E" stroke-linecap="round"/>
<ellipse cx="70.3932" cy="32.9155" rx="2.84559" ry="2.63284" fill="white"/>
<ellipse cx="40.0402" cy="32.9155" rx="2.84559" ry="2.63284" fill="white"/>
<path d="M12.3591 29.5516C16.6117 24.9295 21.2753 20.5122 26.429 16.7531C30.0176 14.1349 31.2507 14.0032 33.2268 13.5059C33.7643 13.3743 34.2385 13.0671 34.697 12.7599C53.9363 0.195464 78.4558 9.10323 83.1985 31.2776C86.3444 45.9922 78.2345 60.6044 64.2911 66.5722C64.0698 66.6746 63.7378 66.7038 63.6271 66.8647C60.8606 70.8725 55.2327 72.4229 51.8021 73.2128C51.1066 73.4468 50.5691 74.1196 49.9367 74.5584C49.4466 74.8949 48.9566 75.2605 48.4032 75.4946C30.2705 83.2761 10.7782 72.8617 6.50986 55.6313C5.90913 53.2032 3.26905 38.5471 12.3591 29.5516ZM50.1264 65.6361C56.5922 65.6068 60.8132 64.6268 64.5915 62.7107C82.7716 53.4811 85.4907 28.4107 69.4922 16.168C60.3231 9.16173 48.593 7.97696 38.2856 14.6907C26.0338 22.6623 21.5915 39.0005 28.4525 51.3456C33.3849 60.2241 41.2102 65.1241 50.1264 65.6361ZM56.3077 69.4244C57.0981 69.1611 57.2088 68.971 57.0823 68.8832C57.0823 68.8832 56.7503 68.8832 56.197 68.8979C41.9691 69.8925 31.2665 64.6561 24.9271 52.8522C18.7301 41.3262 20.2319 30.005 27.5514 19.1665C26.9665 19.4298 26.4922 19.7516 26.0654 20.1173C16.2007 28.3814 13.2918 42.3793 18.983 54.3441C24.2316 65.3874 35.2503 71.9402 47.6444 71.1211C50.5532 70.931 53.4146 70.0095 56.3077 69.4244ZM14.5249 31.4823C14.5407 31.0581 14.1139 31.5847 14.0507 31.6579C13.8293 31.9358 13.608 32.2283 13.4183 32.5208C10.8099 36.5871 9.18155 40.9898 8.96023 45.7143C8.43854 56.4796 12.5172 65.402 22.3661 71.4868C28.911 75.5384 36.183 76.3722 43.7871 74.1781C32.6735 73.1396 24.0102 68.3713 18.161 59.5659C12.3117 50.7898 11.379 41.3701 14.5249 31.4823Z" fill="black"/>
<path d="M62.1408 40.8581C64.3224 40.9313 65.0338 41.9844 64.3224 43.8859C62.5519 48.5665 57.5721 50.8483 52.4974 49.2101C49.4938 48.2301 47.1383 46.4456 45.51 43.9005C44.2611 41.9405 44.8144 40.8143 47.2647 40.668C49.8258 40.5071 59.7537 40.7704 62.1408 40.8581ZM61.6508 43.1399C57.2875 43.1399 53.0349 43.1399 48.7349 43.1399C53.0982 47.8351 59.5482 47.9229 61.6508 43.1399Z" fill="black"/>
<path d="M61.8563 42.5692H48.5769V43.4469L49.5254 45.2021L50.474 46.0797L51.9497 46.9573L53.1176 47.391H55.0147H56.9117L58.0622 46.9573L59.1882 46.5134L59.9593 46.0797L60.9078 45.2021L61.8563 43.4469V42.5692Z" fill="#FF0000" stroke="black"/>
<path d="M44.3561 32.5647C44.372 34.8465 42.0006 36.9235 39.408 36.9089C37.1473 36.8943 35.5664 35.0074 35.5506 33.0035C35.519 30.9996 37.7322 29.025 40.1668 28.9665C42.5065 28.8934 44.3561 30.4731 44.3561 32.5647ZM39.6135 31.1166C38.4436 31.2922 38.08 32.316 38.1749 33.0913C38.3014 34.2175 39.2183 34.4954 39.7874 34.5101C40.3249 34.5247 41.3841 34.0274 41.6054 33.062C41.89 32.082 41.2892 30.751 39.6135 31.1166Z" fill="black"/>
<path d="M74.5669 33.179C74.5353 35.3876 72.8437 37.0112 70.5831 36.9966C68.1485 36.9819 66.3937 35.1536 66.4728 32.7109C66.536 30.59 68.2434 28.9518 70.3617 28.9957C72.5592 29.0542 74.5985 31.0727 74.5669 33.179ZM72.3853 33.1204C72.3853 31.9942 71.7371 31.2336 70.7253 31.2336C70.1088 31.2336 69.0654 31.6724 69.0654 32.8718C69.0654 34.9634 70.7253 34.8464 70.7253 34.8464C71.6106 34.8172 72.3853 34.4807 72.3853 33.1204Z" fill="black"/>
</svg>
