<svg width="92" height="85" viewBox="0 0 92 85" fill="none" xmlns="http://www.w3.org/2000/svg">
<rect x="9.08813" y="8.52089" width="72.8824" height="67.2089" fill="#FFFF00" stroke="black" stroke-width="3"/>
<path d="M45.5612 55.5086C39.0005 55.3477 32.8825 53.8119 27.6814 49.9504C26.8119 49.3068 25.6421 47.8002 25.9266 47.3029C26.7487 45.8841 28.124 47.2736 29.1358 47.7563C40.4391 53.1829 51.6634 53.2414 62.856 47.5223C63.5674 47.1566 64.3263 46.8641 65.1009 46.6739C65.4329 46.6008 65.8755 46.5569 66.2075 47.0396C66.4288 47.3468 66.3024 47.8441 66.1127 48.122C65.7807 48.5901 65.2906 48.9996 64.8005 49.3507C59.1884 53.5047 52.8016 55.6402 45.5612 55.5086Z" fill="black"/>
<path d="M41.9881 28.42C39.6642 32.6033 37.3245 36.7719 34.9848 40.9406C34.8109 41.2477 33.6884 42.6666 32.4712 42.0961C32.0285 41.8913 31.6333 41.4964 31.6333 40.5603C31.6333 40.0922 31.8546 39.5364 32.0918 39.083C34.2418 35.1483 36.4076 31.2137 38.605 27.3083C38.9212 26.7525 39.3322 26.1674 39.8697 25.8164C40.3123 25.5239 41.1028 25.3776 41.5771 25.5385C43.2686 26.0943 42.241 27.9666 41.9881 28.42Z" fill="black"/>
<path d="M64.737 26.8108C66.1914 26.606 66.6815 27.7615 66.3179 28.7708C66.0175 29.6484 65.6065 30.5114 65.1322 31.3158C63.3616 34.2558 61.5594 37.1812 59.7256 40.0773C59.1881 40.9403 58.4609 41.8764 57.1804 41.306C55.7418 40.6624 56.2793 39.4923 56.801 38.6C58.7771 35.1773 60.8006 31.7693 62.9032 28.4051C63.33 27.7176 63.994 26.8108 64.737 26.8108Z" fill="black"/>
</svg>
