<svg width="92" height="85" viewBox="0 0 92 85" fill="none" xmlns="http://www.w3.org/2000/svg">
<ellipse cx="46.4781" cy="42.1254" rx="38.8897" ry="38.6149" fill="#FFFF00"/>
<path d="M5.78613 40.3408C6.27621 28.4784 11.667 16.7623 24.3299 8.61514C27.4758 6.59663 31.2067 5.28021 34.8269 4.00767C54.6512 -2.95471 78.8071 9.63901 84.0082 32.3984C87.7075 48.5757 83.3758 62.8369 69.6063 73.7339C50.8571 88.5802 23.0019 83.1244 11.2718 62.7053C7.65157 56.3572 5.81775 49.5996 5.78613 40.3408ZM43.9486 77.259C51.9637 77.2736 58.5086 75.3575 63.7413 71.9787C84.3402 58.6536 85.9685 28.6393 66.9189 13.4274C58.2398 6.49424 48.1538 4.68051 37.2615 6.91842C33.8784 7.62051 30.606 9.43424 27.713 11.3211C10.592 22.5107 6.10231 45.6357 17.8008 62.3542C24.2983 71.6569 33.4832 76.9226 43.9486 77.259Z" fill="black"/>
<path d="M59.5836 29.8826C59.5836 28.7271 59.3939 27.5131 59.6626 26.4161C59.8365 25.714 60.2317 24.6462 61.2751 24.6609C62.2869 24.6755 63.0457 25.3629 63.2828 25.9773C64.8005 29.9704 65.417 34.1098 64.8005 38.3077C64.753 39.434 63.5674 40.1068 63.0299 40.1068C62.0655 40.1068 61.1012 39.5071 60.8325 38.4686C60.1052 35.6603 59.4413 29.8973 59.5836 29.8826Z" fill="black"/>
<path d="M26.1162 29.8095C26.1952 29.1074 26.6695 27.8787 27.8077 27.674C29.0092 27.3814 29.4361 28.7125 29.5783 29.2976C30.2581 32.1059 30.0842 31.5793 30.432 35.514C30.4636 35.7919 30.5743 40.4871 30.4478 41.7596C30.3213 43.1053 29.5309 43.7781 28.8195 43.8074C27.4758 43.8805 27.0489 43.0468 26.7486 42.0668C25.8158 39.0829 25.3732 36.0552 26.1162 29.8095Z" fill="black"/>
<path d="M65.8342 52.8856C66.1855 52.5615 66.598 52.2519 66.9222 51.9665C67.7443 51.2409 68.1218 50.9985 69.1257 51.615C69.8304 52.2509 69.3941 53.1741 69.0341 53.6472C68.0427 54.982 66.8833 56.2164 65.6211 57.3507C65.1193 57.8052 64.1625 58.6045 63.5296 58.1216C63.0651 57.6788 62.7029 57.3962 63.5911 56.0218C63.7617 55.7603 63.9634 55.4459 64.2425 55.029C60.9379 52.3546 57.1042 51.2306 52.8447 51.1683C46.6492 51.0832 40.1755 53.877 35.7078 58.145C33.8388 59.9354 32.7437 61.8194 31.3344 64.1874C31.0356 64.6751 30.378 65.455 30.595 65.6727C30.892 65.9549 31.2498 66.3119 31.6999 66.6305C32.5773 67.232 32.2964 67.8901 31.9753 68.2819C31.4258 68.9666 30.7591 68.8986 30.3886 68.7047C28.257 67.6234 26.1955 66.4078 24.1724 65.1711C23.8938 64.9991 23.567 64.589 23.9092 63.9455C24.2745 63.2773 24.8152 63.2701 25.2789 63.3049C25.9994 63.3556 26.7023 63.7041 27.6012 63.9936C28.2112 62.9154 28.8062 61.7733 29.4966 60.6992C34.8112 52.3283 42.5296 47.6409 53.2196 47.6479C57.5101 47.6572 61.3971 49.3526 65.8342 52.8856Z" fill="black"/>
</svg>
