<svg width="92" height="85" viewBox="0 0 92 85" fill="none" xmlns="http://www.w3.org/2000/svg">
<ellipse cx="5.36283" cy="15.8379" rx="5.36283" ry="15.8379" transform="matrix(0.499437 0.86635 -0.896745 0.442548 64.449 52.6567)" fill="#FF0000"/>
<ellipse cx="5.54601" cy="17.0468" rx="5.54601" ry="17.0468" transform="matrix(0.827398 0.561616 -0.6213 0.783573 54.3728 42.1254)" fill="#FF0000"/>
<path d="M60.9746 55.0265C61.5912 54.9241 62.1287 54.8364 62.6661 54.7632C66.5235 54.2074 68.9581 56.6062 68.1518 60.1898C67.3772 63.7003 65.0533 66.26 62.0654 68.337C54.8724 73.3247 46.5253 74.6558 37.8147 74.6265C35.4117 74.6119 34.4158 73.471 34.9691 71.3208C37.1823 62.7495 40.5338 54.617 46.8257 47.8594C48.4224 46.1334 50.7937 44.7146 53.1176 43.9394C58.3345 42.1841 62.8559 45.8555 62.0812 50.9456C61.8915 52.2913 61.3698 53.5931 60.9746 55.0265ZM38.4628 71.4671C40.8342 71.2331 42.7628 71.0722 44.6915 70.8382C50.8095 70.0922 56.4849 68.22 61.1169 64.3877C62.761 63.0128 63.9783 61.0382 64.8794 59.1367C65.5908 57.6447 64.5948 56.8988 62.9033 57.4692C61.4331 57.9519 60.1209 58.8149 58.6507 59.2976C57.8603 59.5608 56.6272 59.7217 56.1055 59.3414C55.6154 58.9758 55.6154 57.791 55.7893 57.045C55.979 56.1528 56.6272 55.3629 57.0066 54.4999C57.6073 53.1543 58.3662 51.8379 58.6665 50.4337C59.2831 47.5229 56.8959 45.6507 54.0187 46.894C52.2007 47.6838 50.4143 48.9125 49.1338 50.3313C43.6956 56.4307 41.261 63.8611 38.4628 71.4671Z" fill="black"/>
<ellipse cx="5.5977" cy="14.1927" rx="5.5977" ry="14.1927" transform="matrix(0.89427 0.447527 -0.504677 0.863308 33.2957 21.8927)" fill="#FF0000"/>
<ellipse cx="5.65967" cy="14.4945" rx="5.65967" ry="14.4945" transform="matrix(0.966226 -0.257697 0.297448 0.954738 15.1763 23.9796)" fill="#FF0000"/>
<ellipse cx="5.68034" cy="12.8796" rx="5.68034" ry="12.8796" transform="matrix(0.988576 0.150723 -0.175341 0.984508 55.7371 10.5313)" fill="#FF0000"/>
<ellipse cx="5.35048" cy="11.8382" rx="5.35048" ry="11.8382" transform="matrix(0.467432 0.884029 -0.911018 0.412366 71.7847 18.6802)" fill="#FF0000"/>
<path d="M30.0684 25.9483C31.1592 25.1877 32.5978 24.0614 34.1787 23.1253C37.5776 21.1068 41.0871 22.3062 42.2095 25.8605C43.2055 29.0492 42.7628 32.1793 41.3559 35.2217C38.5261 41.3796 34.4 46.7916 30.1 52.1011C28.8195 53.6662 26.5272 53.754 25.2625 52.1304C23.397 49.7316 21.6423 47.2304 20.2037 44.6122C17.2948 39.3026 14.8603 33.7883 15.0342 27.6889C15.0816 26.0214 15.6823 24.2223 16.5834 22.7743C18.3856 19.8928 22.4011 19.059 25.2309 21.1068C27.286 22.5841 28.8353 24.6758 30.0684 25.9483ZM27.1912 49.8486C28.4717 48.1811 29.7364 46.7916 30.7165 45.2411C33.2459 41.3065 35.9176 37.4158 37.9886 33.2617C38.9371 31.3456 39.5695 29.1808 38.7474 26.6504C38.3206 25.334 37.5301 24.8805 36.1231 25.4802C34.0838 26.3432 33.1037 28.0107 32.2184 29.7805C31.665 30.8776 31.7441 32.6181 29.9261 32.6035C28.0764 32.5889 28.0606 30.8483 27.4283 29.6928C26.5272 28.0399 25.7367 26.2847 24.4878 24.8805C23.7764 24.0761 21.99 23.2862 21.1364 23.5787C20.0298 23.959 19.0338 25.334 18.607 26.4749C18.1801 27.6158 18.3382 29.0199 18.5437 30.2632C19.6978 37.4011 23.2548 43.5883 27.1912 49.8486Z" fill="black"/>
<path d="M66.8238 19.4831C68.2466 19.3222 69.3691 19.1028 70.4757 19.0881C74.1275 19.0296 76.1985 21.0628 76.0246 24.4416C75.8349 27.8935 74.0011 30.5264 70.9974 32.4278C66.2705 35.4264 61.0062 37.284 55.3783 38.2493C54.0029 38.4834 53.1966 38.2786 52.6433 36.5673C50.5566 30.2338 50.9518 23.9443 52.501 17.684C53.0069 15.6655 54.2558 13.7201 55.568 11.9941C57.0698 10.0195 59.3621 9.14187 62.0496 9.85859C64.911 10.6338 66.4128 12.5499 66.7922 15.1681C66.9977 16.5431 66.8238 17.9472 66.8238 19.4831ZM55.0937 34.9729C60.7374 33.7296 66.0492 32.0475 70.4441 28.5956C71.44 27.8058 72.183 26.5771 72.6257 25.407C73.6533 22.6864 72.4518 21.3846 69.3533 21.6917C68.6102 21.7649 67.8672 21.9404 67.1558 22.1305C64.2154 22.9204 63.4566 22.4084 63.3459 19.5416C63.2827 17.9765 63.3617 16.3675 62.9665 14.8756C62.2709 12.2428 59.4885 11.5992 57.7812 13.7493C56.5639 15.2852 55.6628 17.1866 55.1727 19.0589C53.829 24.2807 54.6985 29.5464 55.0937 34.9729Z" fill="black"/>
</svg>
