<svg width="92" height="85" viewBox="0 0 92 85" fill="none" xmlns="http://www.w3.org/2000/svg">
<ellipse cx="45.5295" cy="41.2478" rx="36.0441" ry="35.9821" fill="#FFFF00"/>
<path d="M6 40.4111C6.49007 28.5779 11.8493 16.8179 24.5596 8.71463C27.9585 6.54986 32.0371 5.17493 35.9735 3.87314C55.2761 -2.5188 79.0842 9.87016 84.2379 32.5418C87.9213 48.7484 83.5581 63.0096 69.7412 73.8773C50.9603 88.6505 23.2158 83.1946 11.5173 62.8194C7.86544 56.486 6.03162 49.7137 6 40.4111ZM11.5489 40.0015C11.5647 49.9917 14.0467 57.4806 19.2478 64.1797C30.2507 78.3678 50.075 81.5418 64.8562 71.4932C85.1548 57.6854 85.7081 27.1299 65.9945 12.6346C53.964 3.78538 35.7048 3.50747 23.8165 14.4484C15.6118 21.9958 11.707 31.1376 11.5489 40.0015Z" fill="black"/>
<path d="M59.7256 26.0945C59.8521 25.4948 60.1682 24.6464 61.2274 24.6464C62.255 24.6464 62.9664 25.2461 63.1877 25.8019C64.7844 29.8828 65.401 34.1392 64.7528 38.4542C64.6579 39.1124 63.8517 40.107 63.0455 40.107C61.8914 40.107 61.0061 39.1709 60.8322 38.4688C60.0892 35.6165 59.0458 29.2977 59.7256 26.0945Z" fill="black"/>
<path d="M25.8315 34.6217C25.8315 32.0913 26.0054 30.965 26.3374 29.3707C26.4639 28.7417 26.7959 27.9811 27.8393 27.674C29.0724 27.674 29.436 28.6101 29.5466 29.1513C30.4161 33.4223 30.669 37.1083 30.6532 41.6134C30.6532 42.6811 30.2896 43.7781 28.8352 43.8659C27.2543 43.9536 26.954 42.7981 26.6852 41.6865C26.0529 39.1268 25.8315 37.1668 25.8315 34.6217Z" fill="black"/>
<path d="M36.0439 58.1973C36.1183 58.1973 36.1926 58.1973 39.242 57.2342C42.2914 56.2712 48.3135 54.3451 51.5274 53.2841C54.9642 52.0855 56.0119 51.6686 57.4369 51.2173C58.044 51.0412 58.4158 50.9724 59.0241 50.9015" stroke="black" stroke-width="2" stroke-linecap="round"/>
</svg>
