<svg width="58" height="53" viewBox="0 0 58 53" fill="none" xmlns="http://www.w3.org/2000/svg">
<path d="M1.5 4.5C1.5 2.84315 2.84315 1.5 4.5 1.5H52.8237C54.4806 1.5 55.8237 2.84315 55.8237 4.5V26.2263C55.8237 40.0334 44.6308 51.2263 30.8237 51.2263H4.5C2.84315 51.2263 1.5 49.8832 1.5 48.2263V4.5Z" stroke="#0000FF" stroke-width="3"/>
<path d="M35.0599 31.2098C34.7423 31.0585 34.3737 30.9989 33.9424 31.1382L33.7532 31.2097L33.7522 31.2107C33.5119 31.3185 33.3221 31.459 33.2415 31.6573C33.1547 31.8716 33.2257 32.0713 33.3185 32.2156C33.4101 32.3579 33.5464 32.4868 33.6729 32.5948C33.7935 32.6977 33.9491 32.8165 34.0457 32.896C36.3533 34.7932 39.1588 36.2031 43.1638 36.2281L43.1628 36.229C47.4556 36.3781 51.4537 36.0059 54.6017 34.0583C55.1351 33.7297 55.6662 33.3481 56.0126 32.9039L56.0117 32.9029C56.1047 32.7876 56.2269 32.5829 56.1925 32.344C56.1535 32.0744 55.939 31.8803 55.603 31.7645L55.4247 31.7189C55.2446 31.6874 55.0607 31.6962 54.8944 31.7229C54.6706 31.7589 54.4592 31.8298 54.2957 31.9031L54.2967 31.9031C53.9146 32.0702 53.5648 32.2642 53.2253 32.4511C52.8825 32.6399 52.5493 32.8225 52.1864 32.9789L52.1854 32.9789C48.7008 34.4994 44.8564 34.9504 40.6983 34.1746L40.6984 34.1736C38.6281 33.7917 37.1911 32.8573 35.905 31.818L35.904 31.817C35.688 31.6445 35.397 31.3704 35.0599 31.2098Z" fill="#0000FF" stroke="#0000FF" stroke-width="0.5"/>
<path d="M33.32 32.0091C33.3712 31.7839 33.5024 31.5722 33.7173 31.3747L33.7188 31.373C33.9352 31.177 34.1602 31.0664 34.3934 31.056C34.6256 31.0456 34.8213 31.137 34.9779 31.2546C35.1329 31.371 35.2666 31.5254 35.3801 31.673L35.6888 32.098C37.6372 34.7373 38.8377 37.7047 37.8722 41.3533C37.0057 45.2764 35.5131 48.7856 32.1276 51.0422C31.5558 51.425 30.9219 51.783 30.2604 51.9578C30.0887 52.0062 29.8316 52.0419 29.5861 51.9603C29.3207 51.8721 29.1055 51.6589 29.0273 51.2879L29.012 51.1917C28.9911 50.9685 29.0612 50.7563 29.1561 50.5809C29.2643 50.3812 29.4162 50.2079 29.5557 50.0809C29.875 49.785 30.222 49.5258 30.555 49.2765C30.8075 49.0874 31.0529 48.9032 31.2846 48.7057L31.512 48.5027L31.5132 48.502C34.3887 45.8329 35.9264 42.5302 35.9219 38.5801L35.9212 38.579C35.9246 36.623 35.0457 35.0562 33.9748 33.5784L33.9741 33.5772C33.927 33.5113 33.8756 33.4437 33.8211 33.371C33.7674 33.2994 33.7114 33.2233 33.6571 33.1454C33.5492 32.9908 33.4414 32.8177 33.3725 32.6318C33.3028 32.4437 33.2692 32.2328 33.32 32.0091Z" fill="#0000FF" stroke="#0000FF" stroke-width="0.5"/>
</svg>
