<svg width="58" height="53" viewBox="0 0 58 53" fill="none" xmlns="http://www.w3.org/2000/svg">
<path d="M1.5 4.5C1.5 2.84315 2.84315 1.5 4.5 1.5H52.8237C54.4806 1.5 55.8237 2.84315 55.8237 4.5V26.2263C55.8237 40.0334 44.6308 51.2263 30.8237 51.2263H4.5C2.84315 51.2263 1.5 49.8832 1.5 48.2263V4.5Z" fill="white" stroke="black" stroke-width="3"/>
<path d="M35.0601 31.2098C34.7425 31.0585 34.3739 30.9989 33.9426 31.1382L33.7534 31.2097L33.7524 31.2107C33.5121 31.3185 33.3222 31.459 33.2417 31.6573C33.1549 31.8716 33.2259 32.0713 33.3187 32.2156C33.4103 32.3579 33.5466 32.4868 33.6731 32.5948C33.7936 32.6977 33.9493 32.8165 34.0458 32.896C36.3535 34.7932 39.159 36.2031 43.164 36.2281L43.163 36.229C47.4558 36.3781 51.4539 36.0059 54.6019 34.0583C55.1353 33.7297 55.6664 33.3481 56.0128 32.9039L56.0118 32.9029C56.1048 32.7876 56.2271 32.5829 56.1927 32.344C56.1537 32.0744 55.9392 31.8803 55.6031 31.7645L55.4249 31.7189C55.2448 31.6874 55.0608 31.6962 54.8946 31.7229C54.6708 31.7589 54.4593 31.8298 54.2959 31.9031L54.2969 31.9031C53.9148 32.0702 53.565 32.2642 53.2255 32.4511C52.8827 32.6399 52.5495 32.8225 52.1866 32.9789L52.1856 32.9789C48.701 34.4994 44.8566 34.9504 40.6985 34.1746L40.6985 34.1736C38.6283 33.7917 37.1913 32.8573 35.9052 31.818L35.9042 31.817C35.6881 31.6445 35.3972 31.3704 35.0601 31.2098Z" fill="black" stroke="black" stroke-width="0.5"/>
<path d="M33.3201 32.0091C33.3713 31.7839 33.5025 31.5722 33.7174 31.3747L33.7189 31.373C33.9353 31.177 34.1603 31.0664 34.3935 31.056C34.6257 31.0456 34.8214 31.137 34.978 31.2546C35.133 31.371 35.2667 31.5254 35.3802 31.673L35.6889 32.098C37.6373 34.7373 38.8378 37.7047 37.8723 41.3533C37.0058 45.2764 35.5132 48.7856 32.1277 51.0422C31.5559 51.425 30.9221 51.783 30.2605 51.9578C30.0888 52.0062 29.8317 52.0419 29.5862 51.9603C29.3208 51.8721 29.1056 51.6589 29.0274 51.2879L29.0121 51.1917C28.9912 50.9685 29.0613 50.7563 29.1562 50.5809C29.2644 50.3812 29.4163 50.2079 29.5558 50.0809C29.8751 49.785 30.2221 49.5258 30.5551 49.2765C30.8076 49.0874 31.053 48.9032 31.2847 48.7057L31.5121 48.5027L31.5133 48.502C34.3888 45.8329 35.9265 42.5302 35.922 38.5801L35.9213 38.579C35.9247 36.623 35.0459 35.0562 33.9749 33.5784L33.9742 33.5772C33.9271 33.5113 33.8757 33.4437 33.8212 33.371C33.7676 33.2994 33.7115 33.2233 33.6572 33.1454C33.5494 32.9908 33.4415 32.8177 33.3726 32.6318C33.3029 32.4437 33.2693 32.2328 33.3201 32.0091Z" fill="black" stroke="black" stroke-width="0.5"/>
</svg>
