<svg width="58" height="53" viewBox="0 0 58 53" fill="none" xmlns="http://www.w3.org/2000/svg">
<path d="M1.5 4.5C1.5 2.84315 2.84315 1.5 4.5 1.5H52.8237C54.4806 1.5 55.8237 2.84315 55.8237 4.5V26.2263C55.8237 40.0334 44.6308 51.2263 30.8237 51.2263H4.5C2.84315 51.2263 1.5 49.8832 1.5 48.2263V4.5Z" stroke="black" stroke-width="3"/>
<path d="M35.0601 31.2097C34.7425 31.0584 34.3739 30.9988 33.9426 31.1381L33.7534 31.2097L33.7524 31.2107C33.5121 31.3184 33.3222 31.459 33.2417 31.6573C33.1549 31.8715 33.2259 32.0712 33.3187 32.2156C33.4103 32.3579 33.5466 32.4867 33.6731 32.5948C33.7936 32.6977 33.9493 32.8164 34.0458 32.896C36.3535 34.7931 39.159 36.2031 43.164 36.228L43.163 36.229C47.4558 36.378 51.4539 36.0058 54.6019 34.0582C55.1353 33.7296 55.6664 33.348 56.0128 32.9039L56.0118 32.9029C56.1048 32.7875 56.2271 32.5829 56.1927 32.3439C56.1537 32.0744 55.9392 31.8802 55.6031 31.7644L55.4249 31.7188C55.2448 31.6873 55.0608 31.6962 54.8946 31.7229C54.6708 31.7588 54.4593 31.8298 54.2959 31.903L54.2969 31.9031C53.9148 32.0702 53.565 32.2641 53.2255 32.4511C52.8827 32.6399 52.5495 32.8224 52.1866 32.9789L52.1856 32.9789C48.701 34.4994 44.8566 34.9504 40.6985 34.1745L40.6985 34.1736C38.6283 33.7916 37.1913 32.8572 35.9052 31.8179L35.9042 31.8169C35.6881 31.6444 35.3972 31.3703 35.0601 31.2097Z" fill="black" stroke="black" stroke-width="0.5"/>
<path d="M33.3199 32.0092C33.3711 31.784 33.5023 31.5723 33.7172 31.3748L33.7186 31.3732C33.9351 31.1771 34.16 31.0665 34.3932 31.0561C34.6255 31.0457 34.8211 31.1371 34.9778 31.2547C35.1328 31.3711 35.2665 31.5255 35.3799 31.6731L35.6886 32.0981C37.637 34.7374 38.8375 37.7048 37.8721 41.3534C37.0056 45.2765 35.513 48.7857 32.1275 51.0424C31.5557 51.4251 30.9218 51.7831 30.2602 51.9579C30.0886 52.0063 29.8315 52.042 29.586 51.9604C29.3206 51.8722 29.1054 51.659 29.0272 51.288L29.0119 51.1918C28.9909 50.9686 29.0611 50.7564 29.156 50.581C29.2641 50.3813 29.4161 50.208 29.5556 50.081C29.8749 49.7851 30.2219 49.5259 30.5549 49.2766C30.8073 49.0875 31.0527 48.9034 31.2845 48.7058L31.5119 48.5028L31.5131 48.5021C34.3886 45.833 35.9263 42.5303 35.9218 38.5803L35.9211 38.5791C35.9245 36.6231 35.0456 35.0563 33.9747 33.5785L33.9739 33.5773C33.9268 33.5114 33.8755 33.4438 33.821 33.3711C33.7673 33.2995 33.7113 33.2234 33.6569 33.1455C33.5491 32.9909 33.4413 32.8178 33.3724 32.6319C33.3026 32.4439 33.2691 32.2329 33.3199 32.0092Z" fill="black" stroke="black" stroke-width="0.5"/>
</svg>
