<svg width="57" height="45" viewBox="0 0 57 45" fill="none" xmlns="http://www.w3.org/2000/svg">
<path d="M9.1 23.36H1V44H49.06L55 33.1067L49.06 23.36H41.5M9.1 23.36V18.2M9.1 23.36H25.3M25.3 23.36V14.76M25.3 23.36H41.5M41.5 23.36V11.32M41.5 11.32V1H55L51.22 6.16L55 11.32H41.5Z" stroke="black" stroke-width="2"/>
<path d="M22.5999 33.6799L16.6599 43.9999H32.8599L38.7999 33.6799L32.8599 23.3599H16.6599L22.5999 33.6799Z" stroke="black" stroke-width="2"/>
<path d="M25.3003 9.45337C26.4817 9.45351 27.5405 10.489 27.5405 11.8938C27.5403 13.2983 26.4816 14.3331 25.3003 14.3333C24.1189 14.3333 23.0603 13.2984 23.0601 11.8938C23.0601 10.4889 24.1188 9.45337 25.3003 9.45337Z" stroke="black" stroke-width="2"/>
<path d="M25.3003 9.45337C26.4817 9.45351 27.5405 10.489 27.5405 11.8938C27.5403 13.2983 26.4816 14.3331 25.3003 14.3333C24.1189 14.3333 23.0603 13.2984 23.0601 11.8938C23.0601 10.4889 24.1188 9.45337 25.3003 9.45337Z" stroke="black" stroke-width="2"/>
<path d="M25.3003 9.45337C26.4817 9.45351 27.5405 10.489 27.5405 11.8938C27.5403 13.2983 26.4816 14.3331 25.3003 14.3333C24.1189 14.3333 23.0603 13.2984 23.0601 11.8938C23.0601 10.4889 24.1188 9.45337 25.3003 9.45337Z" stroke="black" stroke-width="2"/>
<path d="M9.10028 12.8933C10.2817 12.8934 11.3405 13.929 11.3405 15.3337C11.3403 16.7383 10.2816 17.7731 9.10028 17.7732C7.91887 17.7732 6.86026 16.7384 6.86005 15.3337C6.86005 13.9289 7.91875 12.8933 9.10028 12.8933Z" stroke="black" stroke-width="2"/>
<path d="M9.10028 12.8933C10.2817 12.8934 11.3405 13.929 11.3405 15.3337C11.3403 16.7383 10.2816 17.7731 9.10028 17.7732C7.91887 17.7732 6.86026 16.7384 6.86005 15.3337C6.86005 13.9289 7.91875 12.8933 9.10028 12.8933Z" stroke="black" stroke-width="2"/>
<path d="M9.10028 12.8933C10.2817 12.8934 11.3405 13.929 11.3405 15.3337C11.3403 16.7383 10.2816 17.7731 9.10028 17.7732C7.91887 17.7732 6.86026 16.7384 6.86005 15.3337C6.86005 13.9289 7.91875 12.8933 9.10028 12.8933Z" stroke="black" stroke-width="2"/>
</svg>
