<svg width="50" height="50" viewBox="0 0 50 50" fill="none" xmlns="http://www.w3.org/2000/svg">
<path d="M39.0967 8.19954C40.7415 7.52067 42.3874 9.16651 41.7085 10.8113L36.9407 22.363C36.3965 23.6815 34.6864 24.0228 33.6778 23.0142L26.8939 16.2303C25.8852 15.2216 26.2265 13.5116 27.5451 12.9673L39.0967 8.19954Z" fill="black"/>
<rect x="40.2842" y="8.04065" width="3" height="40" rx="1.5" transform="rotate(45 40.2842 8.04065)" fill="black"/>
<path d="M10.8113 41.2467C9.16649 41.9256 7.52066 40.2798 8.19952 38.635L12.9673 27.0833C13.5115 25.7648 15.2216 25.4235 16.2303 26.4321L23.0141 33.216C24.0228 34.2247 23.6815 35.9347 22.363 36.479L10.8113 41.2467Z" fill="black"/>
<rect x="9.62378" y="41.4056" width="3" height="40" rx="1.5" transform="rotate(-135 9.62378 41.4056)" fill="black"/>
</svg>
